<svg width="204" height="251" viewBox="0 0 204 251" fill="none" xmlns="http://www.w3.org/2000/svg">
<path fill-rule="evenodd" clip-rule="evenodd" d="M33.8617 171.998C30.6105 171.966 27.355 172.173 24.1592 172.656C20.2987 173.239 16.1708 174.14 12.7774 176.302C10.0687 178.029 8.11522 180.55 6.66791 183.086C5.1723 185.707 4.17947 188.666 4.0364 191.662C3.83229 195.903 4.4568 200.442 6.66791 204.33C10.1253 210.41 15.5189 216.268 22.5306 219.211C27.7725 221.411 34.029 221.376 39.4882 220.215C46.004 218.829 52.416 215.669 56.8875 211.081C60.7675 207.099 62.7926 201.77 63.6457 196.667C64.3356 192.54 64.0948 188.031 62.2379 184.091C60.7347 180.901 58.002 178.193 54.8955 176.29C51.4721 174.193 47.3631 173.373 43.5367 172.79C40.3575 172.305 37.113 172.03 33.8617 171.998ZM33.8341 174.131C36.9566 174.163 40.0821 174.427 43.1457 174.894C46.8789 175.463 50.6486 176.264 53.5751 178.057C56.3497 179.757 58.7868 182.203 60.0711 184.928C61.6989 188.383 61.9569 192.527 61.3178 196.35C60.5117 201.172 58.5749 206.128 55.1209 209.672C51.0372 213.863 45.0205 216.849 38.95 218.14C33.8778 219.219 28.0931 219.197 23.5197 217.277C17.1801 214.616 12.0414 209.124 8.76116 203.355C6.81202 199.927 6.20026 195.735 6.39187 191.754C6.51733 189.127 7.40334 186.445 8.76116 184.066C10.1009 181.718 11.8794 179.486 14.1346 178.048C17.037 176.199 20.813 175.324 24.5456 174.761C27.5943 174.301 30.7117 174.1 33.8341 174.131Z" fill="#EFF4F9"/>
<path fill-rule="evenodd" clip-rule="evenodd" d="M7.92846 182.632C7.6946 182.644 7.47009 182.72 7.28362 182.848C7.09715 182.976 6.95719 183.152 6.88163 183.353C6.80607 183.554 6.79834 183.771 6.85943 183.975C6.92052 184.18 7.04765 184.364 7.22458 184.503C7.22458 184.503 8.32751 185.395 9.76408 186.403C11.2006 187.411 12.9278 188.545 14.498 189.104C21.1507 191.469 28.4722 191.765 35.4029 191.708C50.0652 191.589 61.4052 186.007 61.4052 186.007C61.5452 185.943 61.6695 185.853 61.7707 185.744C61.8719 185.636 61.9481 185.509 61.9947 185.374C62.0413 185.238 62.0574 185.095 62.042 184.953C62.0266 184.811 61.9801 184.674 61.9052 184.549C61.8303 184.424 61.7285 184.313 61.6058 184.224C61.4832 184.135 61.3421 184.069 61.1908 184.031C61.0396 183.992 60.8814 183.981 60.7254 183.998C60.5695 184.016 60.4189 184.061 60.2827 184.132C60.2827 184.132 49.3937 189.46 35.3799 189.574C28.5424 189.63 21.5228 189.307 15.3583 187.116C14.3053 186.742 12.5759 185.675 11.2087 184.716C9.84143 183.757 8.79337 182.911 8.79337 182.911C8.67717 182.815 8.54074 182.74 8.39217 182.692C8.2436 182.644 8.08591 182.624 7.92846 182.632Z" fill="#EFF4F9"/>
<path fill-rule="evenodd" clip-rule="evenodd" d="M62.1505 190.233C61.8452 190.244 61.5565 190.362 61.3454 190.562C61.3454 190.562 60.8144 191.051 60.1217 191.625C59.429 192.199 58.5421 192.864 58.056 193.116C55.1893 194.608 51.8951 195.544 48.5651 196.129C45.7198 196.63 39.1064 196.508 39.1064 196.508C38.9517 196.505 38.7976 196.528 38.6531 196.578C38.5085 196.628 38.3762 196.704 38.2638 196.8C38.1514 196.897 38.061 197.012 37.9979 197.14C37.9348 197.268 37.9001 197.406 37.8959 197.546C37.8916 197.686 37.9179 197.826 37.9733 197.957C38.0286 198.088 38.1118 198.207 38.2183 198.309C38.3247 198.411 38.4522 198.493 38.5935 198.55C38.7349 198.607 38.8873 198.638 39.042 198.642C39.042 198.642 45.4958 198.845 49.016 198.225C52.5211 197.609 56.0583 196.617 59.2292 194.967C60.0876 194.52 60.9705 193.82 61.7135 193.204C62.4564 192.588 63.0246 192.062 63.0246 192.062C63.1936 191.911 63.3082 191.717 63.3533 191.506C63.3984 191.294 63.3719 191.076 63.2774 190.878C63.1829 190.681 63.0247 190.514 62.8236 190.4C62.6225 190.285 62.3879 190.229 62.1505 190.237L62.1505 190.233Z" fill="#EFF4F9"/>
<path fill-rule="evenodd" clip-rule="evenodd" d="M61.1936 199.459C61.0084 199.464 60.8271 199.508 60.6645 199.589C60.6645 199.589 54.5163 202.449 51.5555 203.218C49.5709 203.734 44.7236 204.114 44.7236 204.114C44.4119 204.137 44.1226 204.27 43.9194 204.485C43.7162 204.7 43.6158 204.98 43.6402 205.262C43.6646 205.545 43.8118 205.807 44.0495 205.991C44.2872 206.175 44.5959 206.266 44.9077 206.244C44.9077 206.244 49.6124 205.942 52.2041 205.269C55.7723 204.342 61.7549 201.481 61.7549 201.481C61.9951 201.372 62.1872 201.193 62.2994 200.972C62.4115 200.751 62.4369 200.502 62.3714 200.266C62.3059 200.03 62.1535 199.822 61.9393 199.675C61.7251 199.528 61.462 199.451 61.1936 199.459Z" fill="#EFF4F9"/>
<path fill-rule="evenodd" clip-rule="evenodd" d="M34.4966 176.573C32.3319 176.595 29.5622 176.635 26.9241 176.815C24.2845 176.994 21.8097 177.283 20.0233 177.915C16.6198 179.12 14.9719 181.394 14.9719 181.394C14.8869 181.513 14.8287 181.646 14.8008 181.785C14.7728 181.924 14.7756 182.066 14.809 182.204C14.8424 182.342 14.9057 182.473 14.9952 182.588C15.0848 182.704 15.1989 182.803 15.3307 182.878C15.3307 182.878 20.633 185.956 25.5072 186.887C30.2876 187.8 38.1619 187.836 42.9846 186.953C47.9049 186.052 53.3819 182.948 53.3819 182.948C53.5405 182.859 53.6736 182.738 53.7702 182.594C53.8669 182.449 53.9243 182.286 53.9378 182.117C53.9512 181.949 53.9204 181.78 53.8477 181.625C53.7751 181.469 53.6627 181.331 53.5199 181.223C53.5199 181.223 50.0468 178.495 46.5731 177.489C43.1974 176.512 38.8204 176.538 34.5012 176.572L34.4966 176.573ZM34.5197 178.707C38.8224 178.673 43.0826 178.728 45.8555 179.523C47.8312 180.095 49.2692 181.217 50.3962 181.986C48.6079 182.88 45.5785 184.302 42.5201 184.861C38.2314 185.647 30.244 185.61 25.9949 184.799C22.8123 184.192 19.6754 182.646 18.059 181.808C18.5656 181.261 18.9223 180.596 20.8791 179.903C22.1588 179.45 24.5535 179.118 27.099 178.945C29.6445 178.772 32.3733 178.724 34.5197 178.707Z" fill="#EFF4F9"/>
<path fill-rule="evenodd" clip-rule="evenodd" d="M23.2667 167.46L21.017 168.089L27.1265 186.091L29.3762 185.462L23.2667 167.46Z" fill="#EFF4F9"/>
<path fill-rule="evenodd" clip-rule="evenodd" d="M54.7344 162.367C54.5889 162.371 54.4454 162.4 54.3112 162.451L44.3004 166.118C44.1147 166.186 43.9514 166.296 43.8258 166.438C43.7002 166.579 43.6165 166.747 43.5827 166.926L39.9713 185.795C39.945 185.933 39.949 186.074 39.9831 186.211C40.0172 186.348 40.0807 186.477 40.17 186.592C40.3503 186.823 40.6247 186.98 40.9328 187.028C41.0854 187.052 41.2416 187.048 41.3926 187.017C41.5436 186.986 41.6864 186.929 41.8128 186.848C42.0682 186.685 42.2415 186.436 42.2946 186.157L45.791 167.872L55.1945 164.43C55.4547 164.34 55.6712 164.169 55.8055 163.948C55.9398 163.727 55.9833 163.47 55.9281 163.222C55.8729 162.975 55.7227 162.753 55.5042 162.597C55.2856 162.44 55.0129 162.359 54.7344 162.367Z" fill="#EFF4F9"/>
<path fill-rule="evenodd" clip-rule="evenodd" d="M20.7042 160.772C20.538 160.777 20.375 160.815 20.2259 160.882C20.0768 160.948 19.9451 161.043 19.8393 161.159L12.2576 169.427C12.0993 169.6 12.0057 169.815 11.9902 170.04C11.9747 170.264 12.0382 170.488 12.1714 170.678C12.3047 170.868 12.501 171.015 12.7321 171.098C12.9633 171.181 13.2175 171.195 13.4583 171.139L32.2286 166.739C32.4703 166.682 32.6858 166.557 32.844 166.382C33.0023 166.207 33.095 165.991 33.1088 165.765C33.1226 165.54 33.0568 165.316 32.9209 165.126C32.785 164.936 32.5861 164.79 32.3528 164.71L21.1642 160.843C21.0176 160.792 20.8612 160.767 20.7042 160.772ZM21.1136 163.105L28.0651 165.51L16.4027 168.243L21.1136 163.105Z" fill="#EFF4F9"/>
<path fill-rule="evenodd" clip-rule="evenodd" d="M19.8071 158.001C19.6224 158.007 19.442 158.053 19.2805 158.135C19.119 158.216 18.981 158.331 18.8775 158.47C18.774 158.608 18.7081 158.767 18.6849 158.933C18.6618 159.099 18.6822 159.268 18.7443 159.426L19.7013 161.984C19.7488 162.119 19.8255 162.244 19.927 162.352C20.0284 162.46 20.1525 162.548 20.2921 162.612C20.4317 162.676 20.5839 162.714 20.7399 162.724C20.8959 162.734 21.0525 162.716 21.2007 162.671C21.3488 162.625 21.4855 162.554 21.6028 162.46C21.72 162.366 21.8155 162.252 21.8836 162.125C21.9517 161.997 21.9911 161.859 21.9995 161.717C22.0079 161.576 21.9852 161.434 21.9325 161.301L20.9756 158.742C20.8972 158.52 20.7405 158.327 20.5294 158.193C20.3184 158.059 20.0646 157.992 19.8071 158.001Z" fill="#EFF4F9"/>
<path fill-rule="evenodd" clip-rule="evenodd" d="M12.2714 191.245C12.1598 191.253 12.0528 191.29 11.9631 191.35L5.08992 195.78C5.02679 195.821 4.97314 195.872 4.93204 195.932C4.89093 195.991 4.86318 196.057 4.85037 196.127C4.83755 196.196 4.83992 196.267 4.85734 196.335C4.87477 196.404 4.9069 196.468 4.95191 196.526C4.99692 196.583 5.05392 196.631 5.11967 196.669C5.18541 196.706 5.25861 196.731 5.33507 196.743C5.41154 196.754 5.48979 196.752 5.56534 196.736C5.64089 196.721 5.71227 196.691 5.7754 196.651L12.644 192.217C12.7499 192.151 12.8288 192.055 12.8687 191.944C12.9087 191.833 12.9074 191.713 12.8651 191.603C12.8229 191.493 12.7419 191.399 12.6347 191.334C12.5275 191.27 12.3998 191.238 12.2714 191.245Z" fill="#EFF4F9"/>
<path fill-rule="evenodd" clip-rule="evenodd" d="M14.5348 193.604C14.4234 193.616 14.318 193.657 14.2312 193.721L6.42408 199.285C6.35849 199.326 6.30296 199.38 6.26088 199.441C6.2188 199.503 6.19105 199.572 6.17934 199.644C6.16763 199.715 6.1722 199.788 6.19277 199.859C6.21334 199.929 6.24947 199.994 6.29897 200.051C6.34846 200.108 6.41028 200.156 6.48063 200.19C6.55099 200.225 6.6284 200.246 6.70815 200.253C6.78789 200.259 6.86829 200.251 6.94443 200.229C7.02057 200.206 7.09085 200.17 7.15097 200.122L14.9581 194.559C15.0605 194.488 15.1345 194.389 15.1686 194.276C15.2028 194.164 15.1953 194.044 15.1472 193.936C15.0992 193.828 15.0133 193.737 14.9027 193.677C14.7921 193.617 14.6629 193.591 14.5348 193.604Z" fill="#EFF4F9"/>
<path fill-rule="evenodd" clip-rule="evenodd" d="M17.6908 195.583C17.5582 195.59 17.4317 195.636 17.332 195.716L7.85945 203.071C7.79911 203.116 7.74932 203.171 7.71301 203.234C7.6767 203.297 7.6546 203.366 7.64799 203.437C7.64138 203.507 7.6504 203.578 7.67453 203.646C7.69865 203.713 7.73739 203.776 7.78849 203.83C7.83958 203.883 7.902 203.928 7.97209 203.959C8.04218 203.991 8.11853 204.009 8.19668 204.014C8.27483 204.018 8.3532 204.009 8.42722 203.986C8.50124 203.963 8.56941 203.926 8.62774 203.879L18.1003 196.525C18.1951 196.453 18.2625 196.356 18.293 196.248C18.3235 196.139 18.3155 196.025 18.2703 195.921C18.225 195.816 18.1446 195.728 18.0406 195.667C17.9366 195.607 17.8143 195.577 17.6908 195.583Z" fill="#EFF4F9"/>
<path fill-rule="evenodd" clip-rule="evenodd" d="M20.0831 198.504C19.9499 198.512 19.8233 198.56 19.7243 198.641L9.9389 206.371C9.87774 206.416 9.82724 206.472 9.79038 206.535C9.75353 206.598 9.73108 206.668 9.72437 206.739C9.71765 206.81 9.72681 206.882 9.7513 206.95C9.77579 207.018 9.81511 207.08 9.86693 207.134C9.91874 207.188 9.98199 207.232 10.0529 207.264C10.1239 207.295 10.201 207.313 10.2798 207.317C10.3586 207.321 10.4375 207.31 10.5117 207.286C10.5859 207.261 10.6539 207.224 10.7118 207.175L20.4972 199.445C20.5924 199.373 20.66 199.275 20.6904 199.167C20.7209 199.058 20.7126 198.943 20.6666 198.838C20.6207 198.734 20.5396 198.645 20.4348 198.585C20.33 198.525 20.2069 198.498 20.0831 198.504Z" fill="#EFF4F9"/>
<path fill-rule="evenodd" clip-rule="evenodd" d="M22.7008 201.146C22.5674 201.15 22.4393 201.194 22.3374 201.272L11.6181 209.286C11.4973 209.376 11.421 209.506 11.4059 209.647C11.3908 209.788 11.4382 209.928 11.5376 210.038C11.6371 210.147 11.7804 210.216 11.9361 210.23C12.0919 210.244 12.2472 210.201 12.368 210.111L23.0873 202.097C23.184 202.027 23.2539 201.932 23.2871 201.824C23.3204 201.716 23.3153 201.601 23.2725 201.496C23.2297 201.391 23.1515 201.3 23.0489 201.238C22.9462 201.175 22.8245 201.143 22.7008 201.146Z" fill="#EFF4F9"/>
<path fill-rule="evenodd" clip-rule="evenodd" d="M25.1851 204.447C25.0724 204.452 24.9638 204.487 24.8723 204.547L13.8356 211.619C13.7724 211.659 13.7187 211.71 13.6775 211.77C13.6362 211.829 13.6083 211.895 13.5953 211.964C13.5822 212.033 13.5843 212.104 13.6015 212.172C13.6186 212.241 13.6505 212.305 13.6952 212.362C13.7399 212.42 13.7966 212.468 13.8621 212.506C13.9275 212.543 14.0005 212.568 14.0768 212.58C14.153 212.592 14.2311 212.59 14.3065 212.574C14.382 212.559 14.4533 212.53 14.5164 212.489L25.5532 205.418C25.6585 205.352 25.7372 205.256 25.7772 205.146C25.8171 205.035 25.8162 204.916 25.7746 204.806C25.7329 204.697 25.6528 204.602 25.5464 204.537C25.44 204.472 25.3132 204.44 25.1851 204.447Z" fill="#EFF4F9"/>
<path fill-rule="evenodd" clip-rule="evenodd" d="M28.3457 206.33C28.2124 206.329 28.0827 206.369 27.9776 206.443L17.6724 213.515C17.548 213.601 17.4662 213.727 17.4451 213.868C17.424 214.008 17.4652 214.15 17.5598 214.263C17.6543 214.376 17.7944 214.45 17.9493 214.469C18.1042 214.488 18.2611 214.451 18.3855 214.365L28.6907 207.294C28.7902 207.227 28.864 207.134 28.9018 207.027C28.9396 206.921 28.9394 206.806 28.9012 206.7C28.863 206.593 28.7889 206.5 28.6891 206.434C28.5894 206.368 28.4693 206.331 28.3457 206.33Z" fill="#EFF4F9"/>
<path fill-rule="evenodd" clip-rule="evenodd" d="M31.4787 208.31C31.3454 208.308 31.2156 208.348 31.1106 208.423L19.9681 215.869C19.9044 215.91 19.8504 215.962 19.8093 216.023C19.7681 216.083 19.7405 216.15 19.7282 216.219C19.7159 216.289 19.7191 216.361 19.7376 216.43C19.7561 216.498 19.7895 216.563 19.8359 216.62C19.8824 216.677 19.9408 216.725 20.0079 216.761C20.0751 216.798 20.1495 216.822 20.2269 216.832C20.3043 216.842 20.3831 216.837 20.4587 216.82C20.5343 216.802 20.6053 216.77 20.6674 216.727L31.8099 209.277C31.9104 209.212 31.9857 209.119 32.0251 209.013C32.0645 208.907 32.066 208.792 32.0293 208.685C31.9927 208.578 31.9197 208.484 31.8209 208.417C31.7221 208.35 31.6023 208.312 31.4787 208.31Z" fill="#EFF4F9"/>
<path fill-rule="evenodd" clip-rule="evenodd" d="M34.6116 210.572C34.4577 210.566 34.3075 210.615 34.193 210.709L25.1391 217.876C25.078 217.922 25.0274 217.977 24.9906 218.04C24.9537 218.104 24.9313 218.173 24.9246 218.244C24.9179 218.316 24.927 218.387 24.9515 218.455C24.976 218.523 25.0153 218.586 25.0671 218.64C25.1189 218.694 25.1822 218.738 25.2531 218.769C25.3241 218.801 25.4012 218.819 25.48 218.822C25.5588 218.826 25.6377 218.816 25.7119 218.791C25.7861 218.767 25.8542 218.729 25.912 218.681L34.9705 211.513C35.0618 211.444 35.1277 211.351 35.1595 211.247C35.1913 211.143 35.1875 211.033 35.1486 210.931C35.1097 210.829 35.0376 210.74 34.9417 210.675C34.8458 210.611 34.7307 210.576 34.6116 210.572Z" fill="#EFF4F9"/>
<path fill-rule="evenodd" clip-rule="evenodd" d="M38.4071 213.118C38.2543 213.126 38.1107 213.187 38.0068 213.289L31.3452 219.607C31.2918 219.657 31.2498 219.717 31.2218 219.782C31.1938 219.847 31.1803 219.917 31.182 219.987C31.1837 220.057 31.2006 220.126 31.2318 220.19C31.263 220.254 31.3078 220.312 31.3637 220.361C31.4195 220.409 31.4854 220.447 31.5575 220.473C31.6296 220.498 31.7065 220.51 31.7838 220.508C31.8611 220.507 31.9374 220.492 32.0082 220.463C32.0789 220.435 32.1429 220.395 32.1964 220.344L38.8579 214.027C38.9419 213.95 38.9982 213.852 39.0195 213.746C39.0408 213.64 39.026 213.53 38.9772 213.432C38.9284 213.334 38.8477 213.251 38.7459 213.195C38.6442 213.139 38.526 213.112 38.4071 213.118Z" fill="#EFF4F9"/>
<path fill-rule="evenodd" clip-rule="evenodd" d="M34.3712 39.0647C34.2613 38.9536 34.1311 38.8648 33.9886 38.8036C33.8461 38.7423 33.6944 38.71 33.5427 38.7087C33.5427 38.7087 27.5834 38.6367 24.4826 38.8874C22.6348 39.0364 20.5467 39.0239 18.5441 39.7564C17.0155 40.3154 15.4607 41.1415 14.3053 42.4574C13.2182 43.6961 12.7388 45.2336 12.3552 46.597C11.765 48.6947 11.6587 52.395 11.6587 52.395C11.6527 52.5402 11.6757 52.6868 11.7261 52.8266C11.7765 52.9665 11.8534 53.0969 11.9527 53.2101C12.0519 53.3233 12.1714 53.4171 12.3043 53.4865C12.4372 53.5558 12.5809 53.5991 12.7273 53.614C12.8736 53.6289 13.0196 53.6151 13.1571 53.5732C13.2946 53.5314 13.4207 53.4625 13.5284 53.3704C13.6361 53.2782 13.7233 53.1646 13.7848 53.0361C13.8464 52.9077 13.8811 52.7668 13.887 52.6216C13.887 52.6216 14.094 48.7761 14.5043 47.3172C14.8702 46.0167 15.3024 44.7918 16.0179 43.9765C16.845 43.0345 18.0968 42.334 19.4231 41.8489C20.9572 41.2878 22.835 41.2587 24.7971 41.1003C27.2387 40.9031 31.1536 40.9444 32.4332 40.9528C32.4283 42.1843 32.4395 45.5111 32.151 47.5439C31.8699 49.5231 31.6121 51.4442 30.8436 52.9775C30.1082 54.4449 29.0313 55.7843 27.7403 56.726C26.9247 57.32 25.8634 57.7103 24.7639 57.9197C24.2929 58.0094 23.2614 58.0249 22.4205 57.9901C21.5798 57.9551 20.9061 57.889 20.9061 57.889C20.7596 57.8747 20.6134 57.8892 20.476 57.9317C20.3386 57.9741 20.2125 58.0437 20.1051 58.1365C19.9978 58.2292 19.9111 58.3432 19.8501 58.472C19.7891 58.6009 19.755 58.742 19.7496 58.8874C19.7443 59.0328 19.7676 59.1798 19.8187 59.3196C19.8698 59.4594 19.9475 59.5894 20.0473 59.7024C20.1471 59.8153 20.2671 59.9088 20.4004 59.9776C20.5337 60.0464 20.6777 60.0892 20.8242 60.1034C20.8242 60.1034 21.5573 60.1704 22.4649 60.2081C23.3726 60.2457 24.4305 60.2704 25.3102 60.1029C26.6352 59.8507 27.9828 59.3833 29.1263 58.5505C30.7204 57.3879 31.9758 55.8028 32.845 54.0683C33.8299 52.1032 34.0778 49.9438 34.3551 47.9913C34.7552 45.1721 34.7102 39.8851 34.7102 39.8851C34.7098 39.7363 34.6793 39.5873 34.6206 39.4469C34.5618 39.3065 34.4759 39.1777 34.3681 39.068L34.3712 39.0647Z" fill="#EFF4F9"/>
<path fill-rule="evenodd" clip-rule="evenodd" d="M42.8441 34.6504C41.0683 32.237 38.1027 31.3849 35.7475 30.708C33.5488 30.0761 31.1213 29.7973 28.8425 30.3185C26.2911 30.9021 24.1032 32.3738 22.3131 34.0104C21.2521 34.9814 20.2289 36.5044 19.3982 37.8272C18.5675 39.1499 17.9648 40.2632 17.9648 40.2632L19.9387 41.4092C19.9387 41.4092 20.5154 40.3482 21.3079 39.0863C22.1004 37.8243 23.1479 36.3539 23.8751 35.6885C25.4994 34.2033 27.4258 32.9531 29.4647 32.4867C31.2493 32.0786 33.3275 32.287 35.2554 32.841C37.5619 33.5038 39.9423 34.3529 41.0748 35.8919C42.0959 37.2797 42.3224 39.5156 42.0542 41.445C41.7749 43.4542 40.6487 45.4422 39.2035 46.9706C38.2388 47.9908 36.4193 48.4582 34.6825 49.5723C33.6161 50.2565 31.7225 51.6404 31.7225 51.6404L33.1114 53.4619C33.1114 53.4619 35.044 52.0556 35.9708 51.4609L35.9675 51.4578C37.2889 50.6101 39.3437 50.1588 40.8671 48.5478C42.5454 46.7728 43.9046 44.4642 44.2637 41.8801C44.5808 39.5987 44.4438 36.8245 42.8441 34.6504Z" fill="#EFF4F9"/>
<path fill-rule="evenodd" clip-rule="evenodd" d="M12.7752 46.7397C12.7752 46.7397 6.97229 50.9178 4.39241 53.7924C2.96435 55.3822 0.892265 57.1393 0.432359 59.8504L0.429115 59.8474C-0.00655369 62.4136 0.6355 65.335 2.29322 67.539C3.85921 69.6208 6.35134 70.8254 8.70243 71.2824C11.3798 71.8031 14.1631 71.2658 16.4363 70.1076C18.817 68.8945 20.0755 66.6194 21.4665 65.0294C22.9687 63.3146 25.535 59.8462 25.535 59.8462L23.713 58.4555C23.713 58.4555 21.1073 61.9657 19.7509 63.5135C18.1715 65.3176 16.9895 67.2681 15.3264 68.1154C13.4407 69.0764 11.0789 69.506 9.00422 69.1028C7.12442 68.7372 5.11733 67.6998 4.04892 66.2793C2.85117 64.6872 2.30309 62.2778 2.63029 60.35C2.92643 58.6043 4.55542 57.0425 6.0936 55.3301C8.29315 52.8793 14.161 48.5645 14.161 48.5645L12.7752 46.7397Z" fill="#EFF4F9"/>
<path fill-rule="evenodd" clip-rule="evenodd" d="M35.919 37.2303C35.6992 37.0203 35.4099 36.901 35.1148 36.8987C34.8196 36.8964 34.5427 37.0112 34.3452 37.2179L32.6059 38.981C32.5063 39.0816 32.429 39.202 32.378 39.3354C32.3271 39.4688 32.3036 39.6126 32.309 39.7585C32.3145 39.9044 32.3486 40.0496 32.4096 40.1857C32.4706 40.3218 32.5573 40.4462 32.6646 40.5518C32.7719 40.6574 32.8978 40.7421 33.0351 40.8011C33.1723 40.8602 33.3182 40.8924 33.4644 40.8959C33.6107 40.8994 33.7545 40.8742 33.8875 40.8216C34.0206 40.769 34.1403 40.6902 34.2399 40.5895L35.9821 38.8234C36.0846 38.7221 36.1647 38.6 36.2171 38.4645C36.2696 38.329 36.2934 38.1828 36.2875 38.0343C36.2815 37.8859 36.246 37.7382 36.1826 37.6002C36.1192 37.4622 36.0299 37.3361 35.919 37.2303Z" fill="#EFF4F9"/>
<path fill-rule="evenodd" clip-rule="evenodd" d="M55.0701 58.6874C54.9541 58.5819 54.8191 58.4999 54.6733 58.4465C54.5276 58.3932 54.3742 58.3696 54.2227 58.3773C54.2227 58.3773 48.9408 58.6142 46.147 59.1642C44.212 59.5452 42.0689 59.9079 40.1592 60.9962C38.4735 61.9567 36.9576 63.2948 35.8816 64.9486C35.111 66.1349 34.7163 67.5053 34.5352 68.8419C34.4148 69.7293 34.4957 70.7846 34.5817 71.689C34.6678 72.5933 34.7737 73.3217 34.7737 73.3217C34.7958 73.4673 34.8461 73.6088 34.9219 73.7383C34.9978 73.8677 35.0977 73.9823 35.2158 74.076C35.3339 74.1696 35.4679 74.2402 35.6102 74.2838C35.7526 74.3274 35.9004 74.3431 36.0453 74.3299C36.1902 74.3168 36.3295 74.2751 36.4549 74.2073C36.5803 74.1395 36.6896 74.0469 36.7764 73.9347C36.8633 73.8225 36.9261 73.6929 36.9611 73.5535C36.9962 73.414 37.0027 73.2674 36.9806 73.1219C36.9806 73.1219 36.8787 72.4527 36.7989 71.615C36.7193 70.7772 36.6798 69.7463 36.7443 69.2712C36.8947 68.1621 37.2281 67.0813 37.7777 66.2352C38.6491 64.8958 39.929 63.7492 41.3552 62.9366C42.8452 62.0874 44.7499 61.7276 46.7113 61.3413C48.7258 60.9448 52.0484 60.7785 53.278 60.7079C53.3546 61.9853 53.6046 65.8924 53.5379 68.341C53.4844 70.3088 53.5555 72.1855 53.077 73.7473C52.6633 75.0976 52.0307 76.3848 51.1342 77.261C50.3583 78.0189 49.1579 78.516 47.8788 78.9507C46.4439 79.4383 42.6148 79.85 42.6148 79.85C42.4701 79.8638 42.3314 79.9059 42.2064 79.9742C42.0814 80.0425 41.9727 80.1355 41.8865 80.2479C41.8002 80.3604 41.7379 80.4902 41.7035 80.6297C41.6691 80.7692 41.6631 80.9158 41.6858 81.0611C41.7084 81.2064 41.7595 81.3475 41.8358 81.4765C41.9121 81.6055 42.0123 81.7198 42.1306 81.8129C42.2489 81.9059 42.383 81.9759 42.5254 82.0188C42.6677 82.0618 42.8155 82.0767 42.9602 82.0629C42.9602 82.0629 46.6496 81.7594 48.7128 81.0582C50.0538 80.6025 51.5634 80.0419 52.7423 78.8903C53.9947 77.6664 54.7367 76.0697 55.2134 74.5135C55.838 72.4746 55.7142 70.3902 55.7645 68.537C55.8494 65.4273 55.4597 59.4804 55.4597 59.4804C55.4504 59.3319 55.4114 59.1848 55.345 59.0481C55.2786 58.9114 55.186 58.7877 55.073 58.6843L55.0701 58.6874Z" fill="#EFF4F9"/>
<path fill-rule="evenodd" clip-rule="evenodd" d="M59.0131 49.979C56.7568 48.4974 53.9792 48.5085 51.7179 48.9468C49.1566 49.4433 46.9239 50.9236 45.2409 52.6942C43.7134 54.3014 43.3723 56.3773 42.5963 57.7421L42.593 57.7389C42.0486 58.6961 40.7474 60.701 40.7474 60.701L42.6404 61.9908C42.6404 61.9908 43.9213 60.0261 44.5476 58.9246C45.5675 57.1309 45.9373 55.289 46.9045 54.2713C48.3537 52.7467 50.2788 51.516 52.2703 51.13C54.1826 50.7593 56.4274 50.8662 57.8677 51.8118C59.4649 52.8607 60.4397 55.1924 61.2246 57.4603C61.8806 59.3558 62.1996 61.42 61.8872 63.2238C61.5302 65.2847 60.3845 67.275 58.9881 68.9762C58.3625 69.7378 56.95 70.8623 55.732 71.721C54.5142 72.5796 53.4855 73.2121 53.4855 73.2121L54.7351 75.122C54.7351 75.122 55.8147 74.4609 57.0912 73.5608C58.3678 72.6608 59.8341 71.5578 60.7471 70.4465C62.2859 68.5716 63.6388 66.3084 64.0855 63.7295C64.4845 61.4262 64.0766 59.017 63.3284 56.8551C62.5268 54.5394 61.5178 51.6235 59.0131 49.979Z" fill="#EFF4F9"/>
<path fill-rule="evenodd" clip-rule="evenodd" d="M48.5447 80.6498L46.6488 79.3631C46.6488 79.3631 42.6531 85.4527 40.323 87.7798C38.6951 89.4071 37.2223 91.1173 35.4948 91.5061C33.5872 91.9357 31.1522 91.5167 29.4985 90.4055C28.023 89.4144 26.88 87.4655 26.4147 85.6079C25.9014 83.5577 26.2043 81.1765 27.0633 79.2422C27.8208 77.5363 29.7056 76.2517 31.4229 74.5784C32.8962 73.1414 36.2624 70.3522 36.2624 70.3522L34.7765 68.6069C34.7765 68.6069 31.4459 71.3581 29.8146 72.9493C28.301 74.4232 26.0963 75.8012 25.0119 78.2432C23.9765 80.5749 23.5887 83.3827 24.2514 86.0285C24.8331 88.3519 26.1688 90.7764 28.3311 92.2292C30.6204 93.767 33.5721 94.2521 36.1114 93.6802L36.1081 93.6771C38.7908 93.0732 40.4349 90.9104 41.9463 89.3996C44.6792 86.6701 48.5417 80.6528 48.5417 80.6528L48.5447 80.6498Z" fill="#EFF4F9"/>
<path fill-rule="evenodd" clip-rule="evenodd" d="M56.7803 57.007C56.5534 56.8055 56.2611 56.6971 55.9672 56.7058C55.6734 56.7144 55.4021 56.8392 55.2129 57.0529L53.5422 58.8868C53.3499 59.0984 53.2546 59.383 53.2774 59.6777C53.3002 59.9723 53.4393 60.2528 53.6638 60.4578C53.8884 60.6628 54.18 60.7755 54.4748 60.7708C54.7695 60.766 55.0433 60.6443 55.2356 60.4327L56.9032 58.602C57.0022 58.4968 57.0778 58.3715 57.1254 58.2335C57.173 58.0956 57.1915 57.9479 57.1801 57.7991C57.1687 57.6502 57.1275 57.5034 57.0589 57.3672C56.9904 57.231 56.8952 57.1089 56.7803 57.007Z" fill="#EFF4F9"/>
<path fill-rule="evenodd" clip-rule="evenodd" d="M12.0246 53.4148C11.9272 53.3302 11.806 53.2793 11.6806 53.27L6.5121 52.8321C6.3643 52.8197 6.2212 52.8661 6.11429 52.9612C6.00738 53.0563 5.94543 53.1922 5.94203 53.339C5.93863 53.4858 5.99395 53.6317 6.09606 53.7443C6.19817 53.8569 6.33857 53.9271 6.48637 53.9395L11.6552 54.3771C11.7717 54.3878 11.8863 54.3619 11.9831 54.3032C12.0798 54.2444 12.1538 54.1557 12.1945 54.0495C12.2352 53.9433 12.2406 53.8251 12.21 53.7114C12.1794 53.5976 12.115 53.4935 12.0246 53.4148Z" fill="#EFF4F9"/>
<path fill-rule="evenodd" clip-rule="evenodd" d="M11.4368 55.2192C11.3257 55.1199 11.1828 55.0652 11.0382 55.067L4.0198 55.1096C3.94587 55.1088 3.87341 55.1227 3.80668 55.1505C3.73995 55.1783 3.6802 55.2196 3.63106 55.2716C3.58191 55.3237 3.54428 55.3857 3.52037 55.4539C3.49647 55.5222 3.48674 55.5953 3.4918 55.6691C3.49685 55.7429 3.51656 55.8158 3.54978 55.8836C3.58301 55.9515 3.62918 56.0127 3.6854 56.0641C3.74162 56.1154 3.80683 56.1557 3.8773 56.1825C3.94777 56.2094 4.0221 56.2222 4.09584 56.2204L11.1143 56.1777C11.2255 56.1776 11.3322 56.1441 11.4204 56.0817C11.5086 56.0193 11.5743 55.9308 11.609 55.8275C11.6438 55.7243 11.6459 55.6112 11.6153 55.5027C11.5846 55.3942 11.5223 55.2956 11.4368 55.2192Z" fill="#EFF4F9"/>
<path fill-rule="evenodd" clip-rule="evenodd" d="M10.4323 57.4177C10.3174 57.3254 10.1738 57.2787 10.0315 57.2873L2.40296 57.6742C2.25591 57.6817 2.12151 57.7475 2.02927 57.857C1.93704 57.9665 1.8945 58.1108 1.9111 58.2581C1.92771 58.4054 2.00218 58.5436 2.11789 58.6424C2.23361 58.7412 2.38113 58.7926 2.52818 58.7851L10.1535 58.3952C10.2649 58.3906 10.3704 58.3526 10.456 58.286C10.5416 58.2194 10.6036 58.1272 10.6337 58.0217C10.6638 57.9162 10.6606 57.8022 10.6247 57.6945C10.5888 57.5867 10.5217 57.4903 10.4323 57.4177Z" fill="#EFF4F9"/>
<path fill-rule="evenodd" clip-rule="evenodd" d="M9.44406 59.6316C9.32662 59.54 9.18071 59.4955 9.03731 59.5075L1.76299 59.9632C1.68869 59.9657 1.61671 59.983 1.55105 60.0143C1.48539 60.0457 1.42754 60.0902 1.38091 60.1454C1.33429 60.2005 1.29979 60.2652 1.27958 60.3354C1.25937 60.4057 1.25372 60.4802 1.26312 60.5545C1.27252 60.6287 1.29671 60.7012 1.33424 60.7677C1.37176 60.8342 1.42187 60.8933 1.48158 60.9415C1.54129 60.9897 1.6094 61.026 1.68185 61.0483C1.75429 61.0706 1.82968 61.0783 1.9034 61.0712L9.17465 60.6122C9.28599 60.6066 9.39088 60.5677 9.47587 60.5003C9.56086 60.4328 9.62185 60.3401 9.65094 60.2343C9.68002 60.1284 9.67593 60.0142 9.639 59.9067C9.60207 59.7992 9.53417 59.7033 9.44406 59.6316Z" fill="#EFF4F9"/>
<path fill-rule="evenodd" clip-rule="evenodd" d="M9.0679 61.3756C9.00377 61.3217 8.92944 61.2818 8.8501 61.2587C8.77075 61.2355 8.68823 61.2299 8.60855 61.2418L1.85089 62.1874C1.77903 62.1974 1.7108 62.2214 1.64994 62.2583C1.58907 62.2953 1.53688 62.3442 1.49628 62.4024C1.45568 62.4607 1.42754 62.527 1.41338 62.5977C1.39923 62.6683 1.39925 62.7421 1.41369 62.8145C1.42813 62.8868 1.4567 62.9564 1.49754 63.0194C1.53839 63.0825 1.59067 63.1378 1.65169 63.1819C1.71271 63.226 1.78114 63.2582 1.85305 63.2767C1.92497 63.2952 1.999 63.2995 2.07086 63.2895L8.82852 62.344C8.93408 62.3308 9.03168 62.2872 9.10959 62.2184C9.18751 62.1496 9.24242 62.0586 9.2677 61.9563C9.29298 61.854 9.28765 61.7447 9.25219 61.6417C9.21674 61.5387 9.15273 61.4463 9.0679 61.3756Z" fill="#EFF4F9"/>
<path fill-rule="evenodd" clip-rule="evenodd" d="M8.36717 63.7287C8.30257 63.6759 8.22797 63.6372 8.1487 63.6152C8.06942 63.5931 7.98735 63.5883 7.90817 63.6011L2.39017 64.4105C2.318 64.4205 2.24935 64.4449 2.18831 64.4821C2.12727 64.5193 2.07508 64.5685 2.03457 64.6272C1.99405 64.6858 1.96609 64.7527 1.95234 64.8237C1.93858 64.8948 1.93924 64.9689 1.95436 65.0415C1.96948 65.114 1.99873 65.1838 2.0404 65.2467C2.08207 65.3096 2.13531 65.3644 2.19712 65.4079C2.25892 65.4515 2.32808 65.4828 2.4005 65.5003C2.47293 65.5178 2.54728 65.5209 2.61917 65.5096L8.13393 64.6972C8.23896 64.683 8.33578 64.6387 8.41288 64.5696C8.48999 64.5004 8.5441 64.4093 8.5687 64.3071C8.59331 64.205 8.58737 64.0961 8.55163 63.9935C8.51589 63.891 8.45186 63.799 8.36717 63.7287Z" fill="#EFF4F9"/>
<path fill-rule="evenodd" clip-rule="evenodd" d="M7.66207 65.9498C7.58307 65.8835 7.48894 65.8385 7.38942 65.8197C7.2899 65.801 7.18878 65.8091 7.09675 65.8433L4.37124 66.8049C4.23469 66.8531 4.12646 66.9547 4.07013 67.0873C4.0138 67.22 4.01412 67.3728 4.071 67.5121C4.12789 67.6514 4.23663 67.7659 4.37342 67.8303C4.5102 67.8948 4.6637 67.9039 4.80027 67.8557L7.52577 66.8941C7.617 66.8636 7.69696 66.8091 7.75768 66.7361C7.81841 66.663 7.85777 66.574 7.87161 66.4781C7.88546 66.3823 7.87328 66.2831 7.8365 66.1903C7.79974 66.0975 7.73954 66.0145 7.66207 65.9498Z" fill="#EFF4F9"/>
<path fill-rule="evenodd" clip-rule="evenodd" d="M33.3969 33.1679C33.2857 33.0686 33.1428 33.0139 32.9983 33.0156L25.0787 32.935C25.0047 32.9331 24.9321 32.9458 24.8649 32.9724C24.7977 32.9991 24.7372 33.0393 24.6872 33.0905C24.6372 33.1417 24.5985 33.2029 24.5735 33.2707C24.5485 33.3384 24.5375 33.4113 24.5414 33.485C24.5452 33.5588 24.5637 33.6319 24.5958 33.7002C24.6279 33.7684 24.6729 33.8305 24.7283 33.8827C24.7837 33.9349 24.8481 33.9763 24.9182 34.0043C24.9882 34.0323 25.0625 34.0463 25.1363 34.0457L33.0527 34.1232C33.1653 34.1269 33.2742 34.0965 33.3653 34.0359C33.4563 33.9753 33.525 33.8874 33.5623 33.7839C33.5997 33.6804 33.6039 33.566 33.5744 33.4559C33.545 33.3459 33.4828 33.2457 33.3969 33.1679Z" fill="#EFF4F9"/>
<path fill-rule="evenodd" clip-rule="evenodd" d="M31.5133 35.0961C31.4548 35.0371 31.3849 34.9907 31.3083 34.9602C31.2318 34.9297 31.1505 34.9157 31.0702 34.9193L22.531 35.1799C22.4581 35.182 22.3872 35.1984 22.3224 35.2283C22.2575 35.2582 22.2 35.3009 22.1531 35.354C22.1062 35.4071 22.0708 35.4696 22.049 35.5378C22.0272 35.606 22.0193 35.6787 22.0259 35.7516C22.0325 35.8246 22.0536 35.8962 22.0876 35.9628C22.1216 36.0294 22.168 36.0894 22.2243 36.1395C22.2805 36.1896 22.3454 36.2287 22.4153 36.2546C22.4852 36.2806 22.5587 36.2928 22.6316 36.2907L31.1708 36.0302C31.2785 36.0289 31.3814 35.9965 31.4673 35.9367C31.5532 35.8768 31.6184 35.7922 31.6547 35.6932C31.691 35.5943 31.6969 35.4852 31.6719 35.3792C31.6468 35.2731 31.5917 35.1749 31.5133 35.0961Z" fill="#EFF4F9"/>
<path fill-rule="evenodd" clip-rule="evenodd" d="M29.4144 37.2842C29.3054 37.1822 29.1633 37.1243 29.0184 37.1227L22.0247 36.8983C21.9483 36.8904 21.8719 36.8982 21.8005 36.9211C21.7291 36.9441 21.6641 36.9817 21.6096 37.0317C21.555 37.0817 21.5122 37.143 21.4836 37.2118C21.455 37.2806 21.4412 37.3556 21.4432 37.4318C21.4452 37.5079 21.4631 37.5838 21.4955 37.6547C21.5279 37.7256 21.5742 37.79 21.6315 37.8438C21.6889 37.8977 21.7558 37.9401 21.8286 37.9679C21.9014 37.9958 21.9782 38.0088 22.0543 38.006L29.0483 38.23C29.161 38.2361 29.2708 38.208 29.3632 38.1496C29.4557 38.0911 29.5263 38.0051 29.566 37.9026C29.6057 37.8001 29.6126 37.686 29.5856 37.5755C29.5586 37.4651 29.4986 37.3638 29.4144 37.2842Z" fill="#EFF4F9"/>
<path fill-rule="evenodd" clip-rule="evenodd" d="M34.7964 75.0029C34.699 74.9184 34.5778 74.8674 34.4524 74.8581L29.284 74.4202C29.1361 74.4078 28.993 74.4542 28.8861 74.5493C28.7792 74.6444 28.7173 74.7802 28.7139 74.9271C28.7105 75.0739 28.7658 75.2198 28.8679 75.3324C28.97 75.445 29.1104 75.5153 29.2582 75.5277L34.4271 75.9652C34.5435 75.9759 34.6582 75.95 34.7549 75.8913C34.8517 75.8325 34.9256 75.7438 34.9663 75.6376C35.007 75.5315 35.0124 75.4132 34.9819 75.2995C34.9513 75.1857 34.8868 75.0816 34.7964 75.0029Z" fill="#EFF4F9"/>
<path fill-rule="evenodd" clip-rule="evenodd" d="M34.2086 76.8074C34.0975 76.708 33.9546 76.6533 33.8101 76.6551L26.7917 76.6977C26.7177 76.6969 26.6453 76.7108 26.5785 76.7387C26.5118 76.7665 26.4521 76.8077 26.4029 76.8598C26.3538 76.9118 26.3161 76.9738 26.2922 77.042C26.2683 77.1103 26.2586 77.1834 26.2637 77.2572C26.2687 77.331 26.2884 77.4039 26.3216 77.4718C26.3549 77.5396 26.401 77.6009 26.4573 77.6522C26.5135 77.7035 26.5787 77.7438 26.6492 77.7706C26.7196 77.7975 26.794 77.8103 26.8677 77.8085L33.8861 77.7658C33.9974 77.7657 34.104 77.7322 34.1922 77.6698C34.2804 77.6074 34.3461 77.5189 34.3809 77.4156C34.4157 77.3124 34.4178 77.1993 34.3871 77.0908C34.3565 76.9823 34.2941 76.8837 34.2086 76.8074Z" fill="#EFF4F9"/>
<path fill-rule="evenodd" clip-rule="evenodd" d="M33.2041 79.0059C33.0892 78.9135 32.9457 78.8668 32.8034 78.8754L25.1748 79.2623C25.102 79.266 25.0315 79.2841 24.9674 79.3155C24.9032 79.3468 24.8468 79.3908 24.8011 79.4451C24.7088 79.5546 24.6663 79.6989 24.6829 79.8462C24.6995 79.9935 24.7738 80.1319 24.8896 80.2307C25.0053 80.3295 25.153 80.3808 25.3 80.3732L32.9253 79.9833C33.0368 79.9788 33.1422 79.9407 33.2279 79.8741C33.3135 79.8075 33.3755 79.7154 33.4055 79.6099C33.4356 79.5044 33.4325 79.3903 33.3966 79.2826C33.3606 79.1748 33.2936 79.0784 33.2041 79.0059Z" fill="#EFF4F9"/>
<path fill-rule="evenodd" clip-rule="evenodd" d="M32.2159 81.2197C32.0985 81.1281 31.9526 81.0836 31.8092 81.0956L24.5348 81.5513C24.4605 81.5539 24.3886 81.5711 24.3229 81.6025C24.2572 81.6338 24.1994 81.6783 24.1528 81.7335C24.1061 81.7886 24.0716 81.8533 24.0514 81.9235C24.0312 81.9938 24.0256 82.0683 24.035 82.1426C24.0444 82.2168 24.0686 82.2893 24.1061 82.3558C24.1436 82.4223 24.1937 82.4814 24.2534 82.5296C24.3131 82.5778 24.3813 82.6141 24.4537 82.6364C24.5261 82.6587 24.6015 82.6664 24.6753 82.6593L31.9465 82.2003C32.0578 82.1947 32.1627 82.1558 32.2477 82.0884C32.3327 82.0209 32.3937 81.9283 32.4228 81.8224C32.4519 81.7165 32.4478 81.6023 32.4108 81.4948C32.3739 81.3874 32.306 81.2914 32.2159 81.2197Z" fill="#EFF4F9"/>
<path fill-rule="evenodd" clip-rule="evenodd" d="M31.8398 82.9637C31.7756 82.9098 31.7013 82.8699 31.622 82.8468C31.5426 82.8237 31.4601 82.818 31.3804 82.83L24.6227 83.7755C24.5509 83.7855 24.4826 83.8095 24.4218 83.8465C24.3609 83.8834 24.3087 83.9323 24.2681 83.9906C24.2275 84.0488 24.1994 84.1151 24.1852 84.1858C24.1711 84.2565 24.1711 84.3302 24.1855 84.4026C24.2 84.4749 24.2286 84.5445 24.2694 84.6076C24.3102 84.6706 24.3625 84.7259 24.4235 84.77C24.4846 84.8141 24.553 84.8463 24.6249 84.8648C24.6968 84.8833 24.7709 84.8876 24.8427 84.8776L31.6004 83.9321C31.7059 83.9189 31.8035 83.8753 31.8814 83.8065C31.9594 83.7377 32.0143 83.6467 32.0396 83.5444C32.0648 83.4421 32.0595 83.3328 32.024 83.2298C31.9886 83.1268 31.9246 83.0344 31.8398 82.9637Z" fill="#EFF4F9"/>
<path fill-rule="evenodd" clip-rule="evenodd" d="M31.139 85.3168C31.0744 85.2641 30.9998 85.2253 30.9206 85.2033C30.8413 85.1813 30.7592 85.1764 30.68 85.1892L25.162 85.9986C25.0899 86.0086 25.0212 86.033 24.9602 86.0702C24.8991 86.1074 24.8469 86.1566 24.8064 86.2153C24.7659 86.2739 24.738 86.3408 24.7242 86.4119C24.7104 86.483 24.7111 86.557 24.7262 86.6296C24.7413 86.7022 24.7706 86.7719 24.8123 86.8348C24.8539 86.8977 24.9072 86.9525 24.969 86.9961C25.0308 87.0396 25.0999 87.071 25.1724 87.0884C25.2448 87.1059 25.3191 87.109 25.391 87.0977L30.9058 86.2853C31.0108 86.2711 31.1076 86.2269 31.1847 86.1577C31.2618 86.0885 31.316 85.9974 31.3406 85.8952C31.3652 85.7931 31.3592 85.6842 31.3235 85.5817C31.2877 85.4791 31.2237 85.3871 31.139 85.3168Z" fill="#EFF4F9"/>
<path fill-rule="evenodd" clip-rule="evenodd" d="M30.4339 87.5379C30.3549 87.4716 30.2608 87.4266 30.1613 87.4078C30.0618 87.3891 29.9606 87.3973 29.8686 87.4314L27.1431 88.393C27.0755 88.4169 27.014 88.4542 26.9623 88.5026C26.9106 88.5511 26.8697 88.6099 26.8418 88.6756C26.7854 88.8082 26.7858 88.961 26.8426 89.1004C26.8995 89.2397 27.0085 89.3541 27.1453 89.4185C27.2821 89.4829 27.4355 89.4921 27.5721 89.4438L30.2976 88.4822C30.3888 88.4517 30.4688 88.3972 30.5295 88.3242C30.5903 88.2511 30.6296 88.1621 30.6435 88.0662C30.6573 87.9704 30.6451 87.8712 30.6084 87.7784C30.5716 87.6856 30.5114 87.6027 30.4339 87.5379Z" fill="#EFF4F9"/>
<path fill-rule="evenodd" clip-rule="evenodd" d="M96.7906 111.593C93.8987 111.388 90.9024 111.97 88.3327 113.18C85.2891 114.614 82.4727 116.829 80.7369 119.637C78.995 122.454 78.1564 125.879 78.5589 129.129C79.0402 133.014 80.792 137.098 84.0039 139.843C87.4586 142.796 92.4306 144.72 97.2172 144.415C102.075 144.107 106.731 141.503 109.786 138.139C112.376 135.287 113.518 131.409 113.543 127.81C113.559 123.738 112.555 119.07 109.301 115.943C106.06 112.831 101.08 111.902 96.7906 111.598V111.593ZM96.6091 113.733C100.656 114.021 105.07 114.974 107.622 117.426C110.22 119.922 111.235 124.073 111.22 127.797C111.198 130.977 110.136 134.417 108.007 136.762C105.331 139.709 101.098 142.019 97.0538 142.276C93.0693 142.529 88.5785 140.833 85.583 138.273C82.9172 135.995 81.2924 132.345 80.8639 128.886C80.5249 126.148 81.2572 123.113 82.7515 120.696C84.2069 118.342 86.693 116.358 89.3854 115.089C91.5671 114.062 94.1823 113.56 96.6091 113.733Z" fill="#EFF4F9"/>
<path fill-rule="evenodd" clip-rule="evenodd" d="M98.2154 98.0564C89.5583 97.5065 80.4134 101.023 74.1121 106.405C68.3063 111.365 65.0622 118.856 64.1795 125.98C63.4496 131.87 64.9795 138.147 68.1498 143.272C71.2942 148.355 76.4506 152.418 82.0256 155.042C86.6922 157.239 92.1686 158.299 97.4077 157.927C105.376 157.361 114.499 155.604 120.295 150.038C126.133 144.433 128.029 135.875 128 128.366C127.956 121.778 125.843 114.675 121.171 109.533C115.587 103.387 107.002 98.6192 98.2154 98.0607V98.0564ZM98.0566 100.192C106.03 100.699 114.182 105.177 119.387 110.907C123.599 115.541 125.636 122.207 125.676 128.375C125.705 135.536 123.802 143.577 118.621 148.552C113.512 153.457 104.952 155.243 97.2262 155.791C92.4519 156.131 87.3614 155.147 83.0828 153.133C77.859 150.674 73.0329 146.838 70.169 142.209C67.2465 137.484 65.8227 131.6 66.4891 126.223C67.319 119.525 70.4316 112.473 75.6912 107.98C81.5333 102.989 90.2013 99.6929 98.0566 100.192Z" fill="#EFF4F9"/>
<path fill-rule="evenodd" clip-rule="evenodd" d="M82.6018 101.938L80.5962 103.022L88.1467 114.947L90.1522 113.863L82.6018 101.938Z" fill="#EFF4F9"/>
<path fill-rule="evenodd" clip-rule="evenodd" d="M110.834 102.558L102.848 113.678L104.781 114.863L112.767 103.743L110.834 102.558Z" fill="#EFF4F9"/>
<path fill-rule="evenodd" clip-rule="evenodd" d="M121.511 112.28L109.895 118.711L111.093 120.549L122.709 114.118L121.511 112.28Z" fill="#EFF4F9"/>
<path fill-rule="evenodd" clip-rule="evenodd" d="M111.524 133.311L110.335 135.154L123.984 142.657L125.173 140.814L111.524 133.311Z" fill="#EFF4F9"/>
<path fill-rule="evenodd" clip-rule="evenodd" d="M106.215 140.17L104.028 140.894L109.255 154.292L111.442 153.568L106.215 140.17Z" fill="#EFF4F9"/>
<path fill-rule="evenodd" clip-rule="evenodd" d="M86.8399 140.932L79.5798 152.454L81.5854 153.53L88.8454 142.008L86.8399 140.932Z" fill="#EFF4F9"/>
<path fill-rule="evenodd" clip-rule="evenodd" d="M81.4674 133.969L68.5446 140.668L69.679 142.54L82.6018 135.84L81.4674 133.969Z" fill="#EFF4F9"/>
<path fill-rule="evenodd" clip-rule="evenodd" d="M69.7243 112.879L68.6172 114.763L80.6688 120.792L81.776 118.908L69.7243 112.879Z" fill="#EFF4F9"/>
<path fill-rule="evenodd" clip-rule="evenodd" d="M71.5348 116.676C71.4029 116.672 71.2733 116.709 71.1673 116.782L66.3031 119.997C66.1779 120.081 66.0937 120.206 66.069 120.347C66.0443 120.487 66.0812 120.631 66.1714 120.747C66.2617 120.862 66.398 120.94 66.5503 120.963C66.7026 120.985 66.8585 120.951 66.9837 120.868L71.8479 117.652C71.9483 117.588 72.0241 117.496 72.0647 117.39C72.1052 117.284 72.1084 117.168 72.0737 117.06C72.039 116.952 71.9682 116.857 71.8715 116.788C71.7748 116.719 71.6569 116.68 71.5348 116.676Z" fill="#EFF4F9"/>
<path fill-rule="evenodd" clip-rule="evenodd" d="M72.3198 118.351C72.1683 118.349 72.0217 118.401 71.9114 118.497L65.45 123.99C65.3937 124.038 65.3481 124.096 65.3159 124.16C65.2837 124.224 65.2656 124.293 65.2624 124.364C65.2592 124.434 65.2712 124.505 65.2975 124.571C65.3239 124.637 65.3641 124.698 65.416 124.75C65.4678 124.802 65.5302 124.844 65.5997 124.874C65.6691 124.904 65.7442 124.92 65.8207 124.923C65.8972 124.926 65.9735 124.915 66.0454 124.891C66.1173 124.866 66.1832 124.829 66.2395 124.781L72.701 119.288C72.7892 119.216 72.8517 119.121 72.8802 119.016C72.9087 118.911 72.9019 118.8 72.8605 118.698C72.8192 118.596 72.7454 118.508 72.6488 118.446C72.5522 118.384 72.4375 118.352 72.3198 118.351Z" fill="#EFF4F9"/>
<path fill-rule="evenodd" clip-rule="evenodd" d="M73.2182 120.696C73.0884 120.704 72.9654 120.752 72.8689 120.833L64.5198 127.6C64.4591 127.645 64.4089 127.701 64.3723 127.764C64.3356 127.828 64.3132 127.898 64.3064 127.97C64.2996 128.041 64.3085 128.114 64.3327 128.182C64.3568 128.251 64.3957 128.314 64.4469 128.368C64.4982 128.422 64.5608 128.467 64.631 128.498C64.7012 128.53 64.7775 128.548 64.8555 128.552C64.9335 128.555 65.0114 128.544 65.0847 128.52C65.158 128.495 65.2251 128.457 65.2821 128.407L73.6357 121.641C73.7305 121.569 73.7977 121.47 73.8276 121.359C73.8575 121.249 73.8485 121.133 73.802 121.027C73.7555 120.922 73.6739 120.833 73.569 120.773C73.464 120.713 73.3412 120.687 73.2182 120.696Z" fill="#EFF4F9"/>
<path fill-rule="evenodd" clip-rule="evenodd" d="M73.7038 123.309C73.5529 123.305 73.4064 123.356 73.2954 123.45L65.0915 130.283C64.9773 130.379 64.9088 130.512 64.9011 130.654C64.8935 130.796 64.9473 130.935 65.0508 131.041C65.1543 131.146 65.2989 131.21 65.4529 131.217C65.6069 131.224 65.7577 131.174 65.872 131.079L74.0758 124.245C74.1636 124.174 74.2259 124.08 74.2547 123.975C74.2834 123.871 74.2773 123.761 74.2371 123.659C74.1969 123.558 74.1245 123.47 74.0293 123.407C73.9342 123.345 73.8207 123.311 73.7038 123.309Z" fill="#EFF4F9"/>
<path fill-rule="evenodd" clip-rule="evenodd" d="M74.5296 125.921C74.4003 125.928 74.2773 125.975 74.1802 126.054L65.323 133.088C65.2634 133.134 65.2143 133.19 65.1785 133.253C65.1427 133.316 65.1209 133.385 65.1144 133.456C65.1079 133.527 65.1168 133.599 65.1406 133.666C65.1644 133.734 65.2026 133.797 65.253 133.851C65.3034 133.905 65.3649 133.949 65.4341 133.981C65.5032 134.013 65.5785 134.032 65.6556 134.036C65.7326 134.041 65.8099 134.031 65.8829 134.008C65.956 133.985 66.0232 133.948 66.0807 133.901L74.938 126.866C75.0319 126.794 75.0986 126.696 75.1286 126.587C75.1586 126.477 75.1504 126.362 75.1051 126.257C75.0599 126.152 74.9798 126.063 74.8765 126.002C74.7731 125.942 74.6517 125.914 74.5296 125.921Z" fill="#EFF4F9"/>
<path fill-rule="evenodd" clip-rule="evenodd" d="M75.546 128.936C75.4151 128.942 75.2904 128.989 75.1921 129.069L66.2622 136.17C66.1455 136.263 66.0738 136.396 66.0627 136.538C66.0517 136.68 66.1022 136.82 66.2033 136.928C66.3044 137.035 66.4477 137.102 66.6017 137.112C66.7557 137.122 66.9078 137.076 67.0245 136.982L75.9544 129.881C76.0483 129.809 76.115 129.711 76.145 129.601C76.175 129.492 76.1668 129.376 76.1215 129.271C76.0763 129.166 75.9962 129.077 75.8929 129.017C75.7895 128.957 75.6681 128.929 75.546 128.936Z" fill="#EFF4F9"/>
<path fill-rule="evenodd" clip-rule="evenodd" d="M76.2085 132.285C76.0779 132.291 75.9532 132.337 75.8545 132.416L67.3603 138.981C67.3016 139.026 67.2531 139.082 67.2176 139.144C67.1821 139.207 67.1602 139.275 67.1532 139.345C67.1463 139.415 67.1544 139.486 67.1771 139.553C67.1998 139.62 67.2366 139.683 67.2854 139.737C67.3343 139.791 67.3943 139.836 67.4619 139.869C67.5295 139.902 67.6034 139.922 67.6795 139.928C67.7555 139.935 67.8322 139.927 67.9051 139.906C67.978 139.885 68.0458 139.851 68.1045 139.806L76.5987 133.241C76.6948 133.17 76.7642 133.073 76.7968 132.964C76.8294 132.855 76.8237 132.739 76.7803 132.632C76.7369 132.526 76.6582 132.436 76.5554 132.373C76.4527 132.311 76.3312 132.28 76.2085 132.285Z" fill="#EFF4F9"/>
<path fill-rule="evenodd" clip-rule="evenodd" d="M195.01 67.6894C193.549 67.0312 192.318 66.59 192.318 66.59C192.076 66.503 191.812 66.5019 191.57 66.587C191.328 66.6721 191.123 66.838 190.99 67.0567C190.99 67.0567 190.457 67.9359 189.704 68.9347C188.951 69.9335 187.912 71.0319 187.342 71.3459C186.046 72.0607 184.17 72.0325 182.213 72.0716C180.79 72.1002 177.311 71.5126 177.311 71.5126L177.323 71.5181C177.082 71.472 176.833 71.5064 176.615 71.6156C176.396 71.7248 176.22 71.9028 176.113 72.1224C176.113 72.1224 172.825 79.173 171.14 82.6525C168.043 89.0486 161.637 101.796 161.637 101.796C161.57 101.929 161.531 102.074 161.522 102.222C161.512 102.37 161.533 102.519 161.582 102.659C161.631 102.8 161.708 102.929 161.808 103.039C161.907 103.15 162.028 103.239 162.163 103.302L187.166 114.957C187.43 115.081 187.731 115.096 188.006 115.001C188.28 114.906 188.506 114.707 188.635 114.447C188.635 114.447 198.357 94.8345 202.064 86.0107C203.152 83.4229 203.991 80.3904 203.436 77.3976C202.916 74.5971 201.251 72.1005 199.279 70.2235C198.162 69.1604 196.479 68.3328 195.018 67.674L195.01 67.6894ZM194.097 69.7149C195.47 70.3335 197.066 71.2104 197.733 71.8445C199.436 73.4654 200.834 75.6302 201.238 77.8087C201.668 80.1225 201.002 82.7785 200.001 85.1606C196.501 93.4895 187.728 111.209 187.094 112.49L164.129 101.79C164.749 100.556 170.188 89.7331 173.138 83.6412C174.726 80.3623 177.39 74.6487 177.785 73.8016C178.587 73.9444 180.575 74.3314 182.26 74.2977C184.112 74.2607 186.388 74.4199 188.423 73.2978C189.665 72.6133 190.658 71.3694 191.483 70.2755C191.992 69.5998 192.108 69.3824 192.354 69.0027C192.786 69.165 193.151 69.2875 194.097 69.7149Z" fill="#EFF4F9"/>
<path fill-rule="evenodd" clip-rule="evenodd" d="M177.265 109.067L170.274 122.79L166.768 121.446L173.09 107.101L171.051 106.199L164.262 121.615C164.201 121.753 164.169 121.901 164.167 122.052C164.166 122.203 164.195 122.352 164.253 122.491C164.311 122.63 164.397 122.756 164.505 122.861C164.614 122.967 164.742 123.049 164.883 123.103L170.415 125.226C170.672 125.325 170.957 125.325 171.214 125.227C171.471 125.129 171.683 124.939 171.807 124.694L179.254 110.077L177.265 109.067Z" fill="#EFF4F9"/>
<path fill-rule="evenodd" clip-rule="evenodd" d="M200.069 85.4038C200.069 85.4038 199.618 85.7544 199.034 86.1054C198.451 86.4563 197.675 86.7279 197.57 86.7286L197.562 86.7248C197.529 86.7336 197.095 86.5032 196.52 86.0361C196.233 85.8022 195.915 85.5343 195.485 85.3214C195.051 85.1165 194.414 84.9654 193.802 85.184C191.812 85.8919 190.863 87.6735 190.195 89.3248C189.527 90.9764 189.022 92.6332 188.243 93.6426C187.516 94.5832 187.011 95.38 186.531 95.5841C185.801 95.8945 184.795 95.9089 184.474 95.6779C184.064 95.3834 183.742 94.2879 183.798 93.3477C183.839 92.664 184.246 91.9411 184.834 91.073C185.422 90.205 186.176 89.2292 186.497 87.9289C186.719 87.0292 187.144 85.7275 186.512 84.3898C185.792 82.8575 184.338 81.5566 182.508 81.3669C180.793 81.1885 179.62 82.3504 178.804 83.0006C178.031 83.617 177.683 84.3919 177.366 84.9553C177.049 85.5189 176.808 85.8234 176.585 85.9253C175.912 86.2345 174.817 86.2104 174.333 85.8934C174.265 85.8616 173.776 85.1145 173.524 84.3936C173.273 83.6727 173.139 83.0267 173.139 83.0267L170.956 83.4591C170.956 83.4591 171.109 84.2363 171.418 85.1216C171.727 86.0069 172.068 87.0559 173.104 87.741L173.108 87.7429C174.482 88.6502 176.175 88.562 177.519 87.9449C178.487 87.5007 178.957 86.6754 179.311 86.0466C179.665 85.4178 179.949 84.9373 180.199 84.7383C181.058 84.0536 181.863 83.5344 182.283 83.578C183.052 83.6577 184.106 84.4929 184.498 85.3297C184.664 85.6797 184.56 86.4769 184.335 87.3879C184.157 88.1096 183.611 88.9023 182.99 89.8187C182.369 90.7353 181.658 91.8083 181.574 93.2045C181.491 94.5852 181.69 96.4103 183.173 97.4766C184.555 98.4724 186.214 98.1352 187.411 97.6262C188.861 97.0099 189.456 95.716 190.009 95.0001C191.174 93.4922 191.659 91.6488 192.262 90.1575C192.856 88.6911 193.465 87.7246 194.521 87.323C194.638 87.3783 194.855 87.5396 195.116 87.7542C195.654 88.1901 196.369 88.9616 197.595 88.9493C198.668 88.9411 199.478 88.4353 200.187 88.0089C200.897 87.5815 201.443 87.1534 201.443 87.1534L200.07 85.4011L200.069 85.4038Z" fill="#EFF4F9"/>
<path fill-rule="evenodd" clip-rule="evenodd" d="M173.446 89.7596C173.312 89.7075 173.162 89.7092 173.03 89.7645L169.421 91.2078C169.283 91.2627 169.174 91.3697 169.116 91.5053C169.059 91.6409 169.057 91.794 169.113 91.9309C169.168 92.0678 169.276 92.1773 169.412 92.2353C169.548 92.2932 169.701 92.2949 169.838 92.24L173.447 90.7967C173.552 90.7564 173.642 90.6852 173.706 90.5928C173.769 90.5003 173.803 90.3907 173.803 90.2785C173.803 90.1663 173.769 90.0567 173.705 89.9641C173.641 89.8715 173.551 89.8002 173.446 89.7596Z" fill="#EFF4F9"/>
<path fill-rule="evenodd" clip-rule="evenodd" d="M173.242 91.6594C173.107 91.608 172.957 91.6112 172.824 91.6683L167.581 93.7985C167.508 93.8224 167.442 93.861 167.385 93.9116C167.328 93.9622 167.283 94.0239 167.251 94.0929C167.219 94.1619 167.202 94.2368 167.2 94.3128C167.198 94.3887 167.213 94.4641 167.241 94.5346C167.27 94.6051 167.313 94.6689 167.367 94.7222C167.422 94.7756 167.487 94.8174 167.558 94.8448C167.629 94.8722 167.705 94.8846 167.781 94.8815C167.857 94.8785 167.932 94.86 168 94.827L173.243 92.6968C173.348 92.6565 173.438 92.5853 173.502 92.4928C173.565 92.4004 173.599 92.2908 173.599 92.1786C173.599 92.0664 173.565 91.9568 173.501 91.8642C173.437 91.7715 173.347 91.7 173.242 91.6594Z" fill="#EFF4F9"/>
<path fill-rule="evenodd" clip-rule="evenodd" d="M172.939 94.1265C172.806 94.0711 172.657 94.0693 172.522 94.1214L165.856 96.6545C165.787 96.6793 165.723 96.7178 165.668 96.7675C165.614 96.8173 165.57 96.8773 165.539 96.9442C165.508 97.0112 165.491 97.0837 165.488 97.1574C165.485 97.2312 165.498 97.3047 165.524 97.3738C165.55 97.4429 165.59 97.506 165.641 97.5597C165.692 97.6134 165.753 97.6563 165.82 97.6862C165.888 97.7162 165.961 97.7324 166.035 97.7339C166.109 97.7354 166.182 97.7221 166.251 97.695L172.917 95.1619C173.022 95.1237 173.114 95.0547 173.179 94.9638C173.244 94.8729 173.28 94.7645 173.283 94.6526C173.285 94.5407 173.254 94.4306 173.192 94.3367C173.131 94.2428 173.043 94.1696 172.939 94.1265Z" fill="#EFF4F9"/>
<path fill-rule="evenodd" clip-rule="evenodd" d="M172.428 96.1882C172.294 96.1328 172.145 96.131 172.011 96.1831L163.955 99.2116C163.887 99.2371 163.824 99.2758 163.77 99.3257C163.717 99.3755 163.673 99.4354 163.643 99.502C163.613 99.5686 163.596 99.6404 163.594 99.7135C163.592 99.7867 163.604 99.8596 163.63 99.9281C163.656 99.9966 163.695 100.059 163.745 100.113C163.796 100.166 163.856 100.209 163.923 100.239C163.99 100.269 164.062 100.286 164.135 100.288C164.209 100.29 164.282 100.278 164.35 100.252L172.406 97.2235C172.511 97.1854 172.602 97.1163 172.668 97.0255C172.733 96.9346 172.769 96.8262 172.771 96.7143C172.774 96.6024 172.742 96.4922 172.681 96.3984C172.619 96.3045 172.531 96.2313 172.428 96.1882Z" fill="#EFF4F9"/>
<path fill-rule="evenodd" clip-rule="evenodd" d="M171.994 98.5938C171.861 98.536 171.711 98.5322 171.576 98.583L163.146 101.588C163.076 101.612 163.011 101.649 162.955 101.698C162.9 101.746 162.854 101.806 162.822 101.872C162.79 101.939 162.771 102.011 162.767 102.085C162.763 102.159 162.774 102.233 162.799 102.303C162.824 102.372 162.863 102.436 162.913 102.491C162.964 102.545 163.024 102.589 163.092 102.62C163.159 102.651 163.232 102.669 163.306 102.671C163.38 102.674 163.454 102.661 163.523 102.635L171.953 99.6296C172.059 99.5936 172.152 99.5264 172.22 99.4367C172.287 99.3469 172.325 99.2388 172.33 99.1267C172.334 99.0146 172.305 98.9037 172.245 98.8086C172.185 98.7134 172.098 98.6387 171.994 98.5938Z" fill="#EFF4F9"/>
<path fill-rule="evenodd" clip-rule="evenodd" d="M171.889 100.54C171.753 100.491 171.604 100.497 171.473 100.555L165.707 102.976C165.634 102.999 165.566 103.038 165.508 103.089C165.45 103.14 165.403 103.202 165.371 103.273C165.339 103.343 165.321 103.419 165.32 103.496C165.319 103.573 165.334 103.65 165.364 103.721C165.395 103.792 165.439 103.856 165.496 103.909C165.552 103.962 165.619 104.003 165.692 104.029C165.765 104.055 165.842 104.065 165.92 104.06C165.997 104.054 166.072 104.032 166.14 103.996L171.906 101.575C172.009 101.533 172.098 101.46 172.159 101.367C172.221 101.274 172.253 101.165 172.251 101.053C172.249 100.941 172.214 100.833 172.149 100.741C172.084 100.65 171.994 100.579 171.889 100.54Z" fill="#EFF4F9"/>
<path fill-rule="evenodd" clip-rule="evenodd" d="M172.396 102.545C172.259 102.497 172.109 102.504 171.978 102.564L168.28 104.196C168.145 104.255 168.039 104.366 167.985 104.504C167.932 104.641 167.936 104.795 167.996 104.93C168.056 105.065 168.167 105.171 168.305 105.225C168.444 105.278 168.597 105.275 168.732 105.216L172.43 103.584C172.535 103.541 172.623 103.467 172.684 103.372C172.745 103.277 172.776 103.167 172.772 103.054C172.768 102.941 172.73 102.832 172.663 102.742C172.596 102.651 172.503 102.582 172.396 102.545Z" fill="#EFF4F9"/>
<path fill-rule="evenodd" clip-rule="evenodd" d="M144.499 15.019C141.605 12.7875 137.606 12.7793 134.303 13.272C130.936 13.7738 127.41 15.2366 124.935 17.8548C121.792 21.1815 119.084 25.9798 119.53 30.7796L119.526 30.7777C120.05 36.4248 123.808 42.0505 128.851 44.4074C133.532 46.5944 139.653 45.7546 144.041 42.9703C148.116 40.3853 151.219 35.5159 151.546 30.6366C151.94 24.7554 149.021 18.5061 144.499 15.019ZM143.162 16.7926C147.052 19.7925 149.719 25.5439 149.383 30.5451C149.116 34.5367 146.341 38.9432 142.932 41.1059C139.193 43.4783 133.631 44.1841 129.797 42.3936C125.576 40.4203 122.125 35.2859 121.682 30.5143C121.33 26.7188 123.644 22.3585 126.471 19.367C128.482 17.2391 131.584 15.9051 134.555 15.4623C137.582 15.0108 141.036 15.1582 143.16 16.7965L143.162 16.7926Z" fill="#EFF4F9"/>
<path fill-rule="evenodd" clip-rule="evenodd" d="M127.472 26.8114C127.32 26.7386 127.152 26.704 126.983 26.71C126.813 26.7161 126.646 26.7627 126.495 26.8462C126.344 26.9297 126.213 27.0477 126.114 27.1907C126.014 27.3337 125.948 27.4977 125.921 27.6693C125.545 29.8506 126.173 32.0843 127.198 33.9172C128.193 35.6974 129.69 37.6835 131.959 38.402C135.395 39.49 139.546 38.9037 142.378 36.7136C142.609 36.5342 142.764 36.2703 142.808 35.9798C142.852 35.6893 142.782 35.3959 142.613 35.1643C142.443 34.9327 142.188 34.782 141.905 34.745C141.621 34.708 141.331 34.7879 141.099 34.9672C139.001 36.5902 135.382 37.1569 132.652 36.2923C131.243 35.8461 129.951 34.3283 129.088 32.7846C128.253 31.2906 127.8 29.4665 128.053 27.9942C128.099 27.7558 128.066 27.511 127.961 27.2973C127.856 27.0836 127.684 26.9129 127.472 26.8114Z" fill="#EFF4F9"/>
<path fill-rule="evenodd" clip-rule="evenodd" d="M143.33 26.0158C143.702 26.1497 144.009 26.5396 144.089 26.9354C144.164 27.3035 144.037 27.7541 143.78 28.0339C143.578 28.2526 143.242 28.3479 142.952 28.3363C142.442 28.3165 141.786 28.1601 141.572 27.6917C141.373 27.2565 141.581 26.6079 141.934 26.273C142.284 25.9416 142.89 25.8566 143.33 26.0158Z" fill="#EFF4F9"/>
<path fill-rule="evenodd" clip-rule="evenodd" d="M132.837 23.5219C133.162 23.7468 133.657 23.7687 134.026 23.6038C134.369 23.4506 134.662 23.0856 134.74 22.7136C134.8 22.4221 134.683 22.0938 134.504 21.8647C134.192 21.4613 133.683 21.0186 133.178 21.1173C132.708 21.2084 132.301 21.7544 132.234 22.2368C132.168 22.7137 132.451 23.2568 132.837 23.5219Z" fill="#EFF4F9"/>
<path fill-rule="evenodd" clip-rule="evenodd" d="M149.885 1.64495C149.626 1.52693 149.329 1.51985 149.058 1.62534C148.788 1.73082 148.567 1.94023 148.444 2.20758L145.477 8.41687C145.413 8.54867 145.375 8.69136 145.365 8.83667C145.355 8.98198 145.373 9.1271 145.419 9.26368C145.464 9.40026 145.536 9.52544 145.629 9.63239C145.723 9.73934 145.837 9.8258 145.965 9.88675C146.093 9.9477 146.232 9.98197 146.374 9.98759C146.516 9.99321 146.659 9.97005 146.794 9.91949C146.929 9.86892 147.054 9.79201 147.161 9.693C147.268 9.59398 147.355 9.47481 147.418 9.3425L150.385 3.13333C150.451 2.99986 150.491 2.85482 150.501 2.70696C150.512 2.55911 150.493 2.41146 150.447 2.27267C150.4 2.13388 150.326 2.00679 150.23 1.89906C150.133 1.79132 150.016 1.70456 149.885 1.64495Z" fill="#EFF4F9"/>
<path fill-rule="evenodd" clip-rule="evenodd" d="M125.472 49.2523C125.213 49.1352 124.915 49.1294 124.645 49.236C124.375 49.3425 124.155 49.5528 124.033 49.8207L121.352 55.474C121.289 55.606 121.251 55.7488 121.242 55.8941C121.233 56.0394 121.251 56.1843 121.297 56.3206C121.343 56.4569 121.415 56.582 121.509 56.6885C121.604 56.795 121.718 56.8811 121.846 56.9415C121.974 57.0019 122.113 57.0356 122.255 57.0407C122.398 57.0457 122.54 57.022 122.675 56.9709C122.81 56.9198 122.934 56.8424 123.041 56.7431C123.148 56.6437 123.235 56.5244 123.297 56.3919L125.978 50.7386C126.044 50.6049 126.083 50.4597 126.093 50.3119C126.103 50.164 126.084 50.0163 126.037 49.8777C125.989 49.7391 125.915 49.6123 125.818 49.5049C125.721 49.3976 125.604 49.3114 125.472 49.2523Z" fill="#EFF4F9"/>
<path fill-rule="evenodd" clip-rule="evenodd" d="M162.166 41.4165C162.144 41.4042 162.122 41.3926 162.099 41.3819L156.09 38.5264C155.961 38.4564 155.82 38.4141 155.673 38.4023C155.527 38.3906 155.379 38.4095 155.238 38.4579C155.098 38.5062 154.968 38.5829 154.856 38.6834C154.744 38.784 154.653 38.9062 154.587 39.0427C154.522 39.1791 154.485 39.3271 154.477 39.4772C154.47 39.6272 154.492 39.7764 154.544 39.9156C154.595 40.0549 154.674 40.1811 154.775 40.2869C154.877 40.3926 154.999 40.4755 155.135 40.5305L161.144 43.3861C161.397 43.5128 161.691 43.5316 161.963 43.4383C162.235 43.3451 162.462 43.1475 162.597 42.8881C162.732 42.6287 162.762 42.3286 162.682 42.0524C162.602 41.7763 162.417 41.5464 162.168 41.4126L162.166 41.4165Z" fill="#EFF4F9"/>
<path fill-rule="evenodd" clip-rule="evenodd" d="M116.134 17.821C116.112 17.8087 116.09 17.7972 116.067 17.7865L110.595 15.2074C110.467 15.138 110.325 15.0967 110.178 15.0855C110.032 15.0744 109.884 15.0939 109.744 15.1428C109.603 15.1917 109.473 15.2688 109.362 15.3698C109.25 15.4708 109.16 15.5935 109.095 15.7301C109.031 15.8667 108.994 16.0145 108.987 16.1646C108.98 16.3146 109.003 16.4639 109.054 16.6029C109.106 16.7419 109.185 16.8679 109.287 16.9732C109.389 17.0785 109.512 17.1609 109.647 17.2154L115.119 19.7945C115.372 19.92 115.666 19.9374 115.938 19.8431C116.209 19.7488 116.436 19.5503 116.57 19.2905C116.704 19.0307 116.733 18.7304 116.652 18.4548C116.571 18.1791 116.385 17.95 116.136 17.8172L116.134 17.821Z" fill="#EFF4F9"/>
<path fill-rule="evenodd" clip-rule="evenodd" d="M164.217 18.7481C164.081 18.671 163.93 18.6253 163.773 18.6147C163.616 18.6041 163.458 18.6286 163.309 18.6865L156.961 21.0618C156.82 21.1073 156.689 21.181 156.576 21.2787C156.463 21.3765 156.369 21.4963 156.302 21.6306C156.234 21.7648 156.194 21.9108 156.182 22.06C156.171 22.2091 156.19 22.3583 156.237 22.4983C156.284 22.6382 156.359 22.7662 156.457 22.8745C156.555 22.9827 156.674 23.0689 156.807 23.1279C156.94 23.1869 157.084 23.2174 157.23 23.2177C157.376 23.218 157.522 23.1881 157.658 23.1297L164.005 20.7582C164.204 20.6872 164.38 20.5595 164.512 20.3904C164.644 20.2213 164.726 20.0182 164.749 19.8055C164.771 19.5929 164.733 19.3799 164.639 19.1922C164.544 19.0046 164.398 18.8503 164.217 18.7481Z" fill="#EFF4F9"/>
<path fill-rule="evenodd" clip-rule="evenodd" d="M114.407 35.7287C114.271 35.6519 114.118 35.6071 113.961 35.5971C113.804 35.5871 113.646 35.6123 113.497 35.671L107.734 37.8444C107.6 37.8951 107.476 37.9721 107.369 38.0709C107.262 38.1698 107.175 38.2886 107.112 38.4206C107.05 38.5526 107.013 38.6951 107.004 38.8401C106.995 38.985 107.014 39.1295 107.06 39.2654C107.106 39.4013 107.178 39.526 107.272 39.6321C107.366 39.7383 107.48 39.824 107.608 39.8842C107.736 39.9444 107.875 39.978 108.017 39.9832C108.159 39.9884 108.301 39.9649 108.435 39.9142L114.199 37.7408C114.398 37.6695 114.574 37.5414 114.706 37.3719C114.838 37.2024 114.92 36.9988 114.942 36.7859C114.964 36.5729 114.926 36.3597 114.831 36.172C114.736 35.9844 114.589 35.8304 114.407 35.7287Z" fill="#EFF4F9"/>
<path fill-rule="evenodd" clip-rule="evenodd" d="M127.713 0.199186C127.52 0.107221 127.302 0.076913 127.089 0.112239C126.875 0.147564 126.675 0.246822 126.514 0.397378C126.353 0.547933 126.238 0.743035 126.184 0.957422C126.131 1.17181 126.141 1.39589 126.213 1.60092L128.365 8.0107C128.41 8.14675 128.482 8.2714 128.576 8.37783C128.67 8.48426 128.783 8.57041 128.911 8.63102C129.038 8.69163 129.177 8.72553 129.319 8.73109C129.461 8.73665 129.603 8.71366 129.738 8.66332C129.873 8.61299 129.997 8.53629 130.104 8.43773C130.211 8.33916 130.299 8.22081 130.361 8.08903C130.424 7.95724 130.462 7.81478 130.471 7.66983C130.48 7.52488 130.462 7.3802 130.416 7.24416L128.264 0.834377C128.22 0.695083 128.148 0.566999 128.053 0.4579C127.959 0.348802 127.843 0.260858 127.713 0.199186Z" fill="#EFF4F9"/>
<path fill-rule="evenodd" clip-rule="evenodd" d="M142.997 50.5446C142.804 50.4535 142.587 50.4241 142.374 50.46C142.161 50.4959 141.961 50.5956 141.8 50.7462C141.64 50.8969 141.526 51.0917 141.472 51.3058C141.419 51.5199 141.429 51.7435 141.501 51.9482L143.476 57.774C143.518 57.916 143.587 58.0471 143.68 58.1596C143.773 58.2721 143.888 58.3637 144.018 58.4286C144.148 58.4935 144.29 58.5304 144.436 58.5372C144.582 58.544 144.729 58.5204 144.867 58.468C145.006 58.4156 145.133 58.3356 145.242 58.2325C145.35 58.1294 145.438 58.0055 145.499 57.8683C145.56 57.731 145.594 57.5834 145.598 57.4341C145.602 57.2849 145.576 57.137 145.522 56.9998L143.549 51.1798C143.504 51.0405 143.433 50.9124 143.338 50.8033C143.243 50.6942 143.127 50.6063 142.997 50.5446Z" fill="#EFF4F9"/>
<path fill-rule="evenodd" clip-rule="evenodd" d="M131.732 17.5653C131.638 17.5224 131.534 17.5078 131.432 17.5235L125.184 18.3537C125.113 18.3631 125.044 18.3865 124.982 18.4227C124.919 18.459 124.864 18.5074 124.819 18.565C124.774 18.6226 124.74 18.6884 124.72 18.7585C124.699 18.8287 124.692 18.9018 124.7 18.9739C124.707 19.0459 124.728 19.1154 124.762 19.1784C124.796 19.2413 124.842 19.2966 124.897 19.3409C124.952 19.3852 125.016 19.4176 125.084 19.4365C125.152 19.4554 125.224 19.4603 125.295 19.4509L131.541 18.6149C131.658 18.6006 131.769 18.5476 131.856 18.4642C131.944 18.3808 132.002 18.2715 132.024 18.1527C132.045 18.0339 132.028 17.9123 131.976 17.8062C131.923 17.7002 131.837 17.6156 131.732 17.5653Z" fill="#EFF4F9"/>
<path fill-rule="evenodd" clip-rule="evenodd" d="M129.423 20.236C129.316 20.1794 129.191 20.1621 129.071 20.1872L122.841 21.3587C122.699 21.3854 122.571 21.4684 122.487 21.5892C122.402 21.71 122.367 21.8588 122.389 22.003C122.411 22.1472 122.489 22.2749 122.605 22.358C122.721 22.4411 122.867 22.4728 123.009 22.4461L129.238 21.2746C129.352 21.2558 129.457 21.2011 129.54 21.1183C129.623 21.0355 129.678 20.9288 129.699 20.8136C129.719 20.6983 129.704 20.5805 129.654 20.4768C129.605 20.3732 129.524 20.2885 129.423 20.236Z" fill="#EFF4F9"/>
<path fill-rule="evenodd" clip-rule="evenodd" d="M127.26 23.1475C127.152 23.0932 127.029 23.0782 126.909 23.1047L122.338 24.0351C122.196 24.0639 122.07 24.1485 121.987 24.2705C121.903 24.3926 121.87 24.5421 121.895 24.686C121.919 24.8299 121.999 24.9564 122.116 25.0379C122.233 25.1193 122.379 25.149 122.521 25.1203L127.092 24.1898C127.206 24.1695 127.311 24.1132 127.393 24.0289C127.474 23.9447 127.529 23.8366 127.547 23.7208C127.566 23.6049 127.548 23.4872 127.496 23.3843C127.445 23.2813 127.362 23.198 127.26 23.1475Z" fill="#EFF4F9"/>
<path fill-rule="evenodd" clip-rule="evenodd" d="M125.901 25.4959C125.794 25.4416 125.67 25.4264 125.551 25.4528L120.979 26.3833C120.837 26.412 120.711 26.4968 120.628 26.6189C120.545 26.741 120.511 26.8904 120.536 27.0343C120.56 27.1782 120.64 27.305 120.757 27.3864C120.874 27.4679 121.02 27.4974 121.162 27.4687L125.734 26.5382C125.847 26.5179 125.952 26.4617 126.034 26.3774C126.116 26.2931 126.17 26.1852 126.189 26.0693C126.207 25.9534 126.189 25.8354 126.138 25.7325C126.086 25.6295 126.004 25.5463 125.901 25.4959Z" fill="#EFF4F9"/>
<path fill-rule="evenodd" clip-rule="evenodd" d="M124.901 28.0286C124.793 27.9743 124.67 27.9593 124.55 27.9857L119.979 28.9162C119.837 28.945 119.71 29.0296 119.627 29.1516C119.544 29.2737 119.511 29.4232 119.535 29.567C119.56 29.7109 119.639 29.8375 119.757 29.9189C119.874 30.0004 120.02 30.0301 120.162 30.0014L124.733 29.0709C124.847 29.0506 124.952 28.9943 125.033 28.91C125.115 28.8257 125.169 28.7177 125.188 28.6019C125.207 28.486 125.189 28.3683 125.137 28.2653C125.086 28.1624 125.003 28.079 124.901 28.0286Z" fill="#EFF4F9"/>
<path fill-rule="evenodd" clip-rule="evenodd" d="M124.651 30.1121C124.543 30.0579 124.42 30.0426 124.3 30.069L120.174 30.8963C120.099 30.9051 120.027 30.9297 119.961 30.9681C119.896 31.0066 119.838 31.0582 119.793 31.1199C119.747 31.1815 119.714 31.2518 119.696 31.3263C119.678 31.4007 119.675 31.4777 119.688 31.5524C119.701 31.6272 119.728 31.698 119.769 31.7605C119.81 31.823 119.864 31.8758 119.926 31.9156C119.989 31.9554 120.059 31.9813 120.133 31.9917C120.207 32.002 120.282 31.9967 120.355 31.9759L124.481 31.1489C124.593 31.1274 124.697 31.0708 124.777 30.9872C124.857 30.9035 124.911 30.7969 124.929 30.6825C124.948 30.5681 124.931 30.4515 124.881 30.3492C124.831 30.247 124.751 30.1638 124.651 30.1121Z" fill="#EFF4F9"/>
<path fill-rule="evenodd" clip-rule="evenodd" d="M125.045 32.0534C124.937 31.9976 124.812 31.9819 124.691 32.0086L120.564 32.8359C120.494 32.8496 120.426 32.8773 120.366 32.9174C120.305 32.9574 120.253 33.009 120.211 33.0693C120.17 33.1295 120.14 33.1971 120.124 33.2683C120.108 33.3396 120.106 33.4131 120.118 33.4844C120.129 33.5557 120.155 33.6235 120.193 33.684C120.231 33.7445 120.28 33.7964 120.338 33.8368C120.396 33.8773 120.462 33.9053 120.532 33.9195C120.601 33.9336 120.673 33.9336 120.743 33.9194L124.87 33.0921C124.983 33.0719 125.087 33.016 125.169 32.9326C125.25 32.8492 125.304 32.7425 125.324 32.6275C125.343 32.5125 125.327 32.3951 125.277 32.2922C125.227 32.1893 125.146 32.1052 125.045 32.0534Z" fill="#EFF4F9"/>
<path fill-rule="evenodd" clip-rule="evenodd" d="M125.636 33.8514C125.54 33.8137 125.434 33.8054 125.332 33.8275L121.202 34.6528C121.06 34.6815 120.933 34.7663 120.85 34.8884C120.767 35.0105 120.734 35.1599 120.758 35.3038C120.783 35.4477 120.862 35.5745 120.98 35.656C121.097 35.7374 121.243 35.7669 121.385 35.7382L125.511 34.911C125.628 34.8894 125.736 34.8296 125.818 34.7407C125.9 34.6518 125.952 34.5388 125.967 34.4187C125.981 34.2986 125.956 34.1782 125.896 34.0758C125.837 33.9735 125.745 33.8943 125.636 33.8514Z" fill="#EFF4F9"/>
<path fill-rule="evenodd" clip-rule="evenodd" d="M126.725 35.847C126.616 35.7913 126.491 35.7753 126.37 35.802L122.244 36.6293C122.169 36.6382 122.097 36.6627 122.031 36.7011C121.966 36.7396 121.908 36.7912 121.863 36.8529C121.817 36.9145 121.784 36.9848 121.766 37.0593C121.748 37.1337 121.745 37.2107 121.758 37.2854C121.771 37.3602 121.798 37.431 121.839 37.4935C121.88 37.5561 121.934 37.6088 121.996 37.6486C122.059 37.6884 122.129 37.7143 122.203 37.7247C122.277 37.7351 122.352 37.7297 122.425 37.7089L126.555 36.8836C126.667 36.8621 126.77 36.8054 126.851 36.7218C126.931 36.6381 126.984 36.5317 127.003 36.4173C127.021 36.3029 127.005 36.1865 126.955 36.0843C126.905 35.9821 126.825 35.8988 126.725 35.847Z" fill="#EFF4F9"/>
<path fill-rule="evenodd" clip-rule="evenodd" d="M125.993 190.096C125.83 190.021 125.65 189.989 125.469 190.002C125.289 190.015 125.113 190.073 124.958 190.17C124.958 190.17 115.6 196 111.492 200.214C107.242 204.572 103.461 209.62 100.884 215.221C98.919 219.494 97.2885 226.035 96.1075 231.574C94.9265 237.114 94.2191 241.631 94.2191 241.631C94.1805 241.88 94.2249 242.133 94.3453 242.35C94.4657 242.567 94.6551 242.735 94.8831 242.827L103.484 246.324C103.686 246.406 103.909 246.425 104.124 246.378C104.339 246.33 104.536 246.22 104.691 246.059L111.214 239.276C111.236 239.255 111.256 239.232 111.275 239.208C111.275 239.208 117.895 231.218 120.395 226.292C122.995 221.172 124.84 215.619 125.876 209.988C127.067 203.524 126.631 191.059 126.631 191.059C126.623 190.853 126.56 190.654 126.447 190.484C126.335 190.314 126.178 190.179 125.993 190.096ZM124.436 193.177C124.492 195.919 124.628 204.622 123.709 209.618C122.711 215.035 120.932 220.383 118.437 225.295C116.243 229.618 109.623 237.749 109.603 237.773L103.65 243.961L96.5579 241.079C96.667 240.398 97.1983 237.008 98.2643 232.008C99.4313 226.534 101.094 220.023 102.883 216.135C105.32 210.835 108.937 205.983 113.043 201.771C116.072 198.665 122.222 194.616 124.436 193.177Z" fill="#EFF4F9"/>
<path fill-rule="evenodd" clip-rule="evenodd" d="M123.929 191.593L98.7498 243.505L100.721 244.475L125.901 192.563L123.929 191.593Z" fill="#EFF4F9"/>
<path fill-rule="evenodd" clip-rule="evenodd" d="M154.087 208.078C153.904 207.99 153.699 207.956 153.496 207.98C153.496 207.98 144.828 208.971 140.38 210.242C135.836 211.541 131.24 213.153 127.071 215.656C124.448 217.231 120.59 221.04 120.59 221.04C120.485 221.143 120.399 221.265 120.339 221.401C120.28 221.536 120.247 221.681 120.242 221.828C120.237 221.976 120.261 222.122 120.312 222.258C120.363 222.395 120.44 222.52 120.54 222.625C120.639 222.731 120.758 222.815 120.89 222.873C121.022 222.931 121.164 222.962 121.309 222.964C121.454 222.966 121.598 222.939 121.734 222.884C121.87 222.83 121.994 222.749 122.1 222.646C122.1 222.646 126.138 218.798 128.167 217.58C132.073 215.235 136.484 213.672 140.94 212.399C144.246 211.454 149.352 210.856 151.517 210.581C150.356 212.836 145.422 222.507 141.842 227.942C140.389 230.148 138.956 232.319 137.178 234.012C133.053 237.938 128.124 241.061 123.054 243.798C119.897 245.503 113.481 247.703 112.608 248.004L107.94 241.959C107.855 241.835 107.745 241.731 107.618 241.653C107.491 241.574 107.349 241.523 107.201 241.503C107.053 241.482 106.902 241.492 106.756 241.533C106.611 241.574 106.475 241.645 106.356 241.74C106.237 241.836 106.139 241.954 106.066 242.089C105.993 242.224 105.948 242.372 105.933 242.523C105.918 242.675 105.934 242.828 105.98 242.972C106.025 243.117 106.099 243.249 106.197 243.363L111.365 250.052C111.503 250.23 111.692 250.361 111.907 250.425C112.121 250.49 112.352 250.486 112.567 250.414C112.567 250.414 120.252 247.832 124.063 245.774C129.225 242.987 134.328 239.765 138.672 235.63C140.707 233.693 142.218 231.366 143.669 229.164C147.846 222.823 154.581 209.597 154.581 209.597C154.65 209.463 154.692 209.316 154.704 209.167C154.716 209.017 154.699 208.867 154.653 208.725C154.607 208.583 154.533 208.453 154.436 208.342C154.338 208.231 154.22 208.141 154.087 208.078Z" fill="#EFF4F9"/>
<path fill-rule="evenodd" clip-rule="evenodd" d="M137.113 221.946C137.095 221.937 137.077 221.928 137.058 221.92L125.872 217.067L124.975 219.129L135.641 223.757L137.702 234.219L139.868 233.74L137.693 222.711C137.66 222.546 137.592 222.391 137.492 222.258C137.392 222.124 137.263 222.017 137.114 221.942L137.113 221.946Z" fill="#EFF4F9"/>
<path fill-rule="evenodd" clip-rule="evenodd" d="M133.003 213.077L131.974 215.075L141.251 219.852L142.396 227.53L144.58 227.153L143.35 218.917C143.324 218.744 143.259 218.58 143.158 218.439C143.058 218.298 142.926 218.184 142.774 218.105L133.003 213.077Z" fill="#EFF4F9"/>
<path fill-rule="evenodd" clip-rule="evenodd" d="M115.957 202.968C115.883 202.938 115.803 202.925 115.723 202.929C115.643 202.934 115.564 202.956 115.492 202.995L105.322 208.274C105.254 208.306 105.193 208.351 105.142 208.407C105.091 208.463 105.051 208.528 105.026 208.6C105 208.671 104.989 208.747 104.993 208.822C104.997 208.897 105.015 208.971 105.048 209.038C105.08 209.105 105.126 209.165 105.182 209.213C105.238 209.261 105.304 209.297 105.375 209.319C105.445 209.341 105.52 209.348 105.594 209.34C105.668 209.331 105.74 209.308 105.805 209.271L115.979 203.994C116.077 203.946 116.158 203.871 116.215 203.777C116.271 203.684 116.3 203.576 116.298 203.467C116.295 203.359 116.262 203.254 116.201 203.165C116.141 203.077 116.056 203.008 115.957 202.968Z" fill="#EFF4F9"/>
<path fill-rule="evenodd" clip-rule="evenodd" d="M113.74 207.645C113.667 207.612 113.588 207.595 113.508 207.596C113.427 207.598 113.348 207.616 113.275 207.652L103.534 212.254C103.468 212.285 103.408 212.329 103.358 212.384C103.308 212.438 103.269 212.502 103.243 212.571C103.217 212.641 103.205 212.714 103.207 212.788C103.209 212.861 103.225 212.934 103.255 213C103.284 213.067 103.327 213.127 103.379 213.176C103.432 213.226 103.494 213.264 103.562 213.289C103.629 213.314 103.702 213.326 103.774 213.322C103.847 213.319 103.918 213.301 103.984 213.27L113.726 208.667C113.823 208.623 113.907 208.55 113.966 208.459C114.025 208.368 114.057 208.263 114.058 208.155C114.06 208.047 114.03 207.941 113.974 207.851C113.917 207.76 113.836 207.689 113.74 207.645Z" fill="#EFF4F9"/>
<path fill-rule="evenodd" clip-rule="evenodd" d="M110.796 212.856C110.722 212.826 110.643 212.812 110.563 212.816C110.483 212.82 110.404 212.841 110.333 212.879L100.246 217.973C100.114 218.04 100.012 218.156 99.9633 218.297C99.9144 218.439 99.9223 218.593 99.9854 218.726C100.048 218.859 100.161 218.96 100.3 219.007C100.438 219.054 100.589 219.043 100.722 218.976L110.81 213.877C110.907 213.83 110.988 213.755 111.044 213.663C111.101 213.57 111.13 213.464 111.128 213.356C111.127 213.248 111.095 213.143 111.036 213.055C110.976 212.966 110.893 212.897 110.796 212.856Z" fill="#EFF4F9"/>
<path fill-rule="evenodd" clip-rule="evenodd" d="M108.866 217.559C108.792 217.527 108.712 217.513 108.631 217.516C108.55 217.52 108.471 217.542 108.399 217.58L99.8819 221.881C99.8164 221.914 99.7577 221.959 99.7092 222.015C99.6606 222.071 99.6232 222.135 99.599 222.205C99.5748 222.275 99.5643 222.349 99.5681 222.422C99.5719 222.496 99.5898 222.568 99.6211 222.633C99.6523 222.699 99.6962 222.758 99.7501 222.806C99.804 222.854 99.8669 222.891 99.9353 222.914C100.004 222.938 100.076 222.947 100.149 222.942C100.221 222.936 100.292 222.917 100.358 222.884L108.876 218.579C108.972 218.531 109.053 218.457 109.11 218.365C109.166 218.273 109.195 218.167 109.194 218.059C109.193 217.952 109.161 217.847 109.103 217.758C109.045 217.67 108.963 217.6 108.866 217.559Z" fill="#EFF4F9"/>
<path fill-rule="evenodd" clip-rule="evenodd" d="M106.043 223.042C105.97 223.009 105.891 222.993 105.811 222.994C105.731 222.995 105.651 223.014 105.578 223.049L97.9658 226.574C97.8318 226.637 97.7267 226.75 97.6736 226.89C97.6205 227.029 97.6238 227.184 97.6828 227.319C97.7417 227.454 97.8516 227.558 97.9881 227.61C98.1246 227.661 98.2766 227.655 98.4106 227.592L106.019 224.065C106.117 224.021 106.201 223.95 106.261 223.859C106.321 223.769 106.354 223.663 106.357 223.555C106.359 223.447 106.331 223.341 106.275 223.25C106.22 223.159 106.139 223.087 106.043 223.042Z" fill="#EFF4F9"/>
<path fill-rule="evenodd" clip-rule="evenodd" d="M103.636 228.511C103.506 228.451 103.357 228.446 103.22 228.497L97.5213 230.51C97.4512 230.534 97.3861 230.571 97.3298 230.62C97.2736 230.669 97.2273 230.728 97.1936 230.795C97.1599 230.862 97.1396 230.935 97.1337 231.009C97.1279 231.083 97.1368 231.158 97.1597 231.228C97.1826 231.298 97.2192 231.363 97.2673 231.418C97.3154 231.473 97.374 231.518 97.4398 231.55C97.5056 231.582 97.5771 231.6 97.6503 231.603C97.7235 231.606 97.7969 231.594 97.8661 231.568L103.565 229.554C103.671 229.519 103.765 229.451 103.834 229.362C103.903 229.272 103.944 229.163 103.952 229.051C103.96 228.938 103.934 228.826 103.878 228.729C103.821 228.633 103.737 228.558 103.636 228.511Z" fill="#EFF4F9"/>
</svg>
