<svg width="12" height="15" viewBox="0 0 12 15" fill="none" xmlns="http://www.w3.org/2000/svg">
<rect y="5" width="12" height="10" rx="2" fill="#16C40B"/>
<path d="M8 9C8 10.1046 7.10457 11 6 11C4.89543 11 4 10.1046 4 9C4 7.89543 4.89543 7 6 7C7.10457 7 8 7.89543 8 9Z" fill="white"/>
<path d="M4.96856 10.7502C4.96856 10.198 5.41627 9.75025 5.96856 9.75025C6.52084 9.75025 6.96856 10.198 6.96856 10.7502V11.7502C6.96856 12.3025 6.52084 12.7502 5.96856 12.7502C5.41627 12.7502 4.96856 12.3025 4.96856 11.7502V10.7502Z" fill="white"/>
<path d="M3 3.96751C3 2.3213 4.33256 1 6.00013 1C7.66761 1 9 2.32122 9 3.96751V5.96751H3V3.96751Z" stroke="#16C40B" stroke-width="2"/>
</svg>
