<svg width="60" height="63" viewBox="0 0 60 63" fill="none" xmlns="http://www.w3.org/2000/svg">
<path fill-rule="evenodd" clip-rule="evenodd" d="M29.8617 13.9979C26.6105 13.9659 23.355 14.1728 20.1592 14.6563C16.2987 15.239 12.1708 16.1399 8.77744 18.3025C6.0687 20.0289 4.11522 22.5501 2.66791 25.0865C1.1723 27.7073 0.179466 30.6664 0.0363989 33.6623C-0.167708 37.9029 0.456799 42.4416 2.66791 46.3302C6.12531 52.4106 11.5189 58.268 18.5306 61.2108C23.7725 63.4109 30.029 63.3761 35.4882 62.215C42.004 60.8293 48.416 57.6694 52.8875 53.0808C56.7675 49.099 58.7926 43.7704 59.6457 38.6669C60.3356 34.5398 60.0948 30.0312 58.2379 26.0907C56.7347 22.9007 54.002 20.1935 50.8955 18.29C47.4721 16.1927 43.3631 15.373 39.5367 14.7897C36.3575 14.3049 33.113 14.0306 29.8617 13.9979ZM29.8341 16.1314C32.9566 16.1635 36.0821 16.427 39.1457 16.894C42.8789 17.4632 46.6486 18.264 49.5751 20.0568C52.3497 21.757 54.7868 24.2032 56.0711 26.9283C57.6989 30.3829 57.9569 34.5272 57.3178 38.3503C56.5117 43.1723 54.5749 48.1277 51.1209 51.6724C47.0372 55.8631 41.0205 58.8486 34.95 60.1398C29.8778 61.2186 24.0931 61.1966 19.5197 59.2773C13.1801 56.6165 8.04138 51.1238 4.76116 45.3551C2.81202 41.9271 2.20026 37.7349 2.39187 33.754C2.51733 31.1267 3.40334 28.4451 4.76116 26.0657C6.10085 23.7178 7.8794 21.4861 10.1346 20.0485C13.037 18.1989 16.813 17.3241 20.5456 16.7607C23.5943 16.3007 26.7117 16.1003 29.8341 16.1314Z" fill="#2266DD"/>
<path fill-rule="evenodd" clip-rule="evenodd" d="M3.92846 24.6322C3.6946 24.6444 3.47009 24.7196 3.28362 24.8481C3.09715 24.9765 2.95719 25.1522 2.88163 25.3531C2.80607 25.5539 2.79834 25.7707 2.85943 25.9755C2.92052 26.1804 3.04765 26.3641 3.22458 26.5032C3.22458 26.5032 4.32751 27.3955 5.76408 28.4034C7.20065 29.411 8.92776 30.5453 10.498 31.1036C17.1507 33.4686 24.4722 33.7648 31.4029 33.708C46.0652 33.5886 57.4052 28.0075 57.4052 28.0075C57.5452 27.9428 57.6695 27.8533 57.7707 27.7444C57.8719 27.6356 57.9481 27.5095 57.9947 27.3736C58.0413 27.2376 58.0574 27.0946 58.042 26.953C58.0266 26.8113 57.9801 26.6739 57.9052 26.5488C57.8303 26.4236 57.7285 26.3132 57.6058 26.2242C57.4832 26.1353 57.3421 26.0695 57.1908 26.0307C57.0396 25.9919 56.8814 25.981 56.7254 25.9984C56.5695 26.0159 56.4189 26.0614 56.2827 26.1323C56.2827 26.1323 45.3937 31.4597 31.3799 31.5745C24.5424 31.63 17.5228 31.3075 11.3583 29.1159C10.3053 28.7417 8.57587 27.6749 7.20865 26.7157C5.84143 25.7567 4.79337 24.9114 4.79337 24.9114C4.67717 24.8148 4.54074 24.7403 4.39217 24.6923C4.2436 24.6444 4.08591 24.6239 3.92846 24.6322Z" fill="#2266DD"/>
<path fill-rule="evenodd" clip-rule="evenodd" d="M58.1505 32.2329C57.8452 32.2439 57.5565 32.3619 57.3454 32.5621C57.3454 32.5621 56.8144 33.0506 56.1217 33.6247C55.429 34.1991 54.5421 34.8637 54.056 35.1165C51.1893 36.6081 47.8951 37.5439 44.5651 38.1293C41.7198 38.6298 35.1064 38.5085 35.1064 38.5085C34.9517 38.5046 34.7976 38.5283 34.6531 38.5783C34.5085 38.6284 34.3762 38.7039 34.2638 38.8002C34.1514 38.8966 34.061 39.0121 33.9979 39.1401C33.9348 39.2681 33.9001 39.406 33.8959 39.5461C33.8916 39.6863 33.9179 39.8259 33.9733 39.9568C34.0286 40.0878 34.1118 40.2074 34.2183 40.3092C34.3247 40.411 34.4522 40.4927 34.5935 40.5499C34.7349 40.607 34.8873 40.6383 35.042 40.6421C35.042 40.6421 41.4958 40.8447 45.016 40.2254C48.5211 39.6092 52.0583 38.6166 55.2292 36.9667C56.0876 36.5199 56.9705 35.82 57.7135 35.204C58.4564 34.5881 59.0246 34.062 59.0246 34.062C59.1936 33.9108 59.3082 33.7169 59.3533 33.5057C59.3984 33.2945 59.3719 33.0759 59.2774 32.8786C59.1829 32.6812 59.0247 32.5143 58.8236 32.3999C58.6225 32.2854 58.3879 32.2286 58.1505 32.2371L58.1505 32.2329Z" fill="#2266DD"/>
<path fill-rule="evenodd" clip-rule="evenodd" d="M57.1936 41.4588C57.0084 41.4639 56.8271 41.5086 56.6645 41.589C56.6645 41.589 50.5163 44.4494 47.5555 45.2185C45.5709 45.734 40.7236 46.1145 40.7236 46.1145C40.4119 46.1366 40.1226 46.2698 39.9194 46.4851C39.7162 46.7004 39.6158 46.9801 39.6402 47.2625C39.6646 47.5449 39.8118 47.8069 40.0495 47.9909C40.2872 48.175 40.5959 48.2659 40.9077 48.2438C40.9077 48.2438 45.6124 47.9419 48.2041 47.2687C51.7723 46.3417 57.7549 43.4809 57.7549 43.4809C57.9951 43.3723 58.1872 43.1929 58.2994 42.972C58.4115 42.751 58.4369 42.5018 58.3714 42.2659C58.3059 42.0301 58.1535 41.8216 57.9393 41.675C57.7251 41.5284 57.462 41.4515 57.1936 41.4588Z" fill="#2266DD"/>
<path fill-rule="evenodd" clip-rule="evenodd" d="M30.4966 18.5732C28.3319 18.5946 25.5622 18.6351 22.9241 18.8149C20.2845 18.9941 17.8097 19.2829 16.0233 19.915C12.6198 21.1201 10.9719 23.3945 10.9719 23.3945C10.8869 23.513 10.8287 23.6457 10.8008 23.7847C10.7728 23.9237 10.7756 24.0662 10.809 24.2042C10.8424 24.3423 10.9057 24.4727 10.9952 24.5884C11.0848 24.7041 11.1989 24.8026 11.3307 24.878C11.3307 24.878 16.633 27.9563 21.5072 28.8867C26.2876 29.7997 34.1619 29.8364 38.9846 28.9529C43.9049 28.0521 49.3819 24.9481 49.3819 24.9481C49.5405 24.8593 49.6736 24.738 49.7702 24.5936C49.8669 24.4492 49.9243 24.2859 49.9378 24.1175C49.9512 23.9491 49.9204 23.7803 49.8477 23.6248C49.7751 23.4692 49.6627 23.3314 49.5199 23.2229C49.5199 23.2229 46.0468 20.495 42.5731 19.4892C39.1974 18.512 34.8204 18.5381 30.5012 18.5725L30.4966 18.5732ZM30.5197 20.7068C34.8224 20.6726 39.0826 20.7281 41.8555 21.5235C43.8312 22.0955 45.2692 23.2169 46.3962 23.9863C44.6079 24.8802 41.5785 26.3017 38.5201 26.8615C34.2314 27.6467 26.244 27.6103 21.9949 26.7995C18.8123 26.1919 15.6754 24.6465 14.059 23.8079C14.5656 23.2608 14.9223 22.5963 16.8791 21.9035C18.1588 21.4506 20.5535 21.1185 23.099 20.9451C25.6445 20.7723 28.3733 20.7238 30.5197 20.7068Z" fill="#2266DD"/>
<path fill-rule="evenodd" clip-rule="evenodd" d="M19.2667 9.45989L17.017 10.0891L23.1265 28.0909L25.3762 27.4616L19.2667 9.45989Z" fill="#2266DD"/>
<path fill-rule="evenodd" clip-rule="evenodd" d="M50.7344 4.36755C50.5889 4.37135 50.4454 4.39956 50.3112 4.45076L40.3004 8.11778C40.1147 8.18609 39.9514 8.29614 39.8258 8.4376C39.7002 8.57906 39.6165 8.74727 39.5827 8.92619L35.9713 27.7947C35.945 27.9328 35.949 28.0743 35.9831 28.2111C36.0172 28.3479 36.0807 28.4773 36.17 28.5919C36.3503 28.8232 36.6247 28.98 36.9328 29.0281C37.0854 29.0519 37.2416 29.0483 37.3926 29.0174C37.5436 28.9866 37.6864 28.929 37.8128 28.8482C38.0682 28.6848 38.2415 28.4363 38.2946 28.1572L41.791 9.87211L51.1945 6.43011C51.4547 6.33992 51.6712 6.16915 51.8055 5.94804C51.9398 5.72693 51.9833 5.46981 51.9281 5.22245C51.8729 4.97508 51.7227 4.75341 51.5042 4.59686C51.2856 4.44032 51.0129 4.35917 50.7344 4.36755Z" fill="#2266DD"/>
<path fill-rule="evenodd" clip-rule="evenodd" d="M16.7042 2.77178C16.538 2.77739 16.375 2.8149 16.2259 2.88168C16.0768 2.94846 15.9451 3.04309 15.8393 3.15932L8.25758 11.4268C8.09926 11.6004 8.00566 11.8148 7.99019 12.0396C7.97471 12.2644 8.03816 12.4878 8.17143 12.6779C8.3047 12.868 8.50097 13.0151 8.73213 13.098C8.96329 13.1809 9.21749 13.1954 9.45832 13.1394L28.2286 8.73902C28.4703 8.68221 28.6858 8.55748 28.844 8.38247C29.0023 8.20747 29.095 7.99134 29.1088 7.76549C29.1226 7.53964 29.0568 7.31562 28.9209 7.12584C28.785 6.93607 28.5861 6.79032 28.3528 6.70966L17.1642 2.84262C17.0176 2.7916 16.8612 2.76723 16.7042 2.77178ZM17.1136 5.10521L24.0651 7.50973L12.4027 10.2433L17.1136 5.10521Z" fill="#2266DD"/>
<path fill-rule="evenodd" clip-rule="evenodd" d="M15.8071 0.00083172C15.6224 0.00743635 15.442 0.0532493 15.2805 0.134699C15.119 0.216148 14.981 0.330894 14.8775 0.469627C14.774 0.608359 14.7081 0.76724 14.6849 0.933343C14.6618 1.09945 14.6822 1.26818 14.7443 1.42584L15.7013 3.98429C15.7488 4.11923 15.8255 4.24423 15.927 4.35203C16.0284 4.45983 16.1525 4.54832 16.2921 4.61221C16.4317 4.6761 16.5839 4.71416 16.7399 4.7242C16.8959 4.73424 17.0525 4.71605 17.2007 4.67068C17.3488 4.62531 17.4855 4.55371 17.6028 4.45998C17.72 4.36626 17.8155 4.2523 17.8836 4.1248C17.9517 3.99729 17.9911 3.85878 17.9995 3.71733C18.0079 3.57589 17.9852 3.43427 17.9325 3.30089L16.9756 0.74244C16.8972 0.520051 16.7405 0.326996 16.5294 0.193038C16.3184 0.0590797 16.0646 -0.00837651 15.8071 0.00083172Z" fill="#2266DD"/>
<path fill-rule="evenodd" clip-rule="evenodd" d="M8.27138 33.2456C8.15975 33.2532 8.05283 33.2896 7.96314 33.3503L1.08992 37.7798C1.02679 37.8206 0.97314 37.8721 0.932037 37.9317C0.890934 37.9912 0.863182 38.0575 0.850366 38.1268C0.83755 38.196 0.839922 38.2669 0.857345 38.3354C0.874768 38.4038 0.906902 38.4686 0.951911 38.5257C0.996921 38.5829 1.05392 38.6315 1.11967 38.6687C1.18541 38.706 1.25861 38.7311 1.33508 38.7427C1.41154 38.7543 1.48979 38.7522 1.56534 38.7364C1.64089 38.7207 1.71227 38.6915 1.77541 38.6508L8.64402 34.217C8.74987 34.1506 8.82879 34.0546 8.86872 33.9438C8.90865 33.833 8.90739 33.7133 8.86512 33.6031C8.82285 33.493 8.74191 33.3986 8.63468 33.3341C8.52745 33.2696 8.39985 33.2381 8.27138 33.2456Z" fill="#2266DD"/>
<path fill-rule="evenodd" clip-rule="evenodd" d="M10.5348 35.6041C10.4234 35.6162 10.318 35.657 10.2312 35.7215L2.42408 41.2848C2.35849 41.3264 2.30296 41.3796 2.26088 41.4413C2.2188 41.5031 2.19105 41.5719 2.17934 41.6437C2.16763 41.7155 2.1722 41.7885 2.19277 41.8586C2.21334 41.9287 2.24947 41.9943 2.29897 42.0513C2.34846 42.1083 2.41028 42.1557 2.48063 42.1904C2.55099 42.225 2.6284 42.2463 2.70815 42.2529C2.78789 42.2595 2.86829 42.2514 2.94443 42.2289C3.02057 42.2064 3.09085 42.17 3.15097 42.1221L10.9581 36.5591C11.0605 36.4883 11.1345 36.389 11.1686 36.2765C11.2028 36.164 11.1953 36.0444 11.1472 35.9361C11.0992 35.8278 11.0133 35.7368 10.9027 35.677C10.7921 35.6172 10.6629 35.591 10.5348 35.6041Z" fill="#2266DD"/>
<path fill-rule="evenodd" clip-rule="evenodd" d="M13.6908 37.5834C13.5582 37.5896 13.4317 37.6362 13.332 37.7157L3.85945 45.0706C3.79911 45.1158 3.74932 45.1716 3.71301 45.2344C3.67671 45.2973 3.6546 45.3661 3.64799 45.4368C3.64138 45.5075 3.6504 45.5784 3.67453 45.6459C3.69865 45.7134 3.7374 45.776 3.78849 45.8298C3.83958 45.8835 3.902 45.9276 3.97209 45.9592C4.04218 45.9909 4.11853 46.0093 4.19668 46.0139C4.27483 46.0185 4.3532 46.009 4.42722 45.9858C4.50124 45.9626 4.56941 45.9263 4.62775 45.879L14.1003 38.5252C14.1951 38.4533 14.2625 38.3563 14.293 38.2478C14.3235 38.1393 14.3155 38.0249 14.2703 37.9207C14.225 37.8165 14.1446 37.7278 14.0406 37.6673C13.9366 37.6068 13.8143 37.5774 13.6908 37.5834Z" fill="#2266DD"/>
<path fill-rule="evenodd" clip-rule="evenodd" d="M16.0831 40.5045C15.9499 40.5119 15.8233 40.56 15.7243 40.641L5.9389 48.3709C5.87775 48.4161 5.82724 48.4718 5.79039 48.535C5.75353 48.5982 5.73108 48.6677 5.72437 48.7389C5.71765 48.8101 5.72681 48.8817 5.7513 48.9496C5.77579 49.0176 5.81511 49.0803 5.86693 49.1343C5.91874 49.1882 5.98199 49.2324 6.05292 49.2637C6.12385 49.295 6.20101 49.313 6.27982 49.3168C6.35863 49.3206 6.43749 49.3102 6.51169 49.2858C6.5859 49.2615 6.65395 49.2238 6.71179 49.1752L16.4972 41.4452C16.5924 41.3732 16.66 41.2755 16.6904 41.1666C16.7209 41.0576 16.7126 40.9428 16.6666 40.8384C16.6207 40.734 16.5396 40.6454 16.4348 40.5853C16.33 40.5251 16.2069 40.4976 16.0831 40.5045Z" fill="#2266DD"/>
<path fill-rule="evenodd" clip-rule="evenodd" d="M18.7008 43.1465C18.5674 43.1499 18.4393 43.1942 18.3374 43.2723L7.6181 51.2858C7.49731 51.3759 7.42097 51.5057 7.40588 51.6468C7.39079 51.7878 7.43817 51.9283 7.53761 52.0377C7.63706 52.1471 7.78041 52.2165 7.93613 52.2302C8.09186 52.2438 8.2472 52.2007 8.36799 52.1106L19.0873 44.0973C19.184 44.0274 19.2539 43.9318 19.2871 43.8239C19.3204 43.7159 19.3153 43.6011 19.2725 43.496C19.2297 43.3908 19.1515 43.3005 19.0489 43.2379C18.9462 43.1753 18.8245 43.1428 18.7008 43.1465Z" fill="#2266DD"/>
<path fill-rule="evenodd" clip-rule="evenodd" d="M21.1851 46.4468C21.0724 46.4524 20.9638 46.4872 20.8723 46.5471L9.83557 53.6186C9.77242 53.6591 9.7187 53.7104 9.67747 53.7697C9.63624 53.8289 9.60831 53.8951 9.59527 53.9642C9.58224 54.0333 9.58435 54.104 9.60149 54.1723C9.61864 54.2406 9.65047 54.3052 9.69518 54.3624C9.73989 54.4196 9.79661 54.4683 9.86208 54.5057C9.92755 54.543 10.0005 54.5681 10.0768 54.5799C10.153 54.5917 10.2311 54.59 10.3065 54.5744C10.382 54.5589 10.4533 54.53 10.5164 54.4895L21.5532 47.418C21.6585 47.3518 21.7372 47.2562 21.7772 47.1458C21.8171 47.0355 21.8162 46.9164 21.7746 46.8065C21.7329 46.6966 21.6528 46.6021 21.5464 46.5372C21.44 46.4723 21.3132 46.4404 21.1851 46.4468Z" fill="#2266DD"/>
<path fill-rule="evenodd" clip-rule="evenodd" d="M24.3457 48.3303C24.2124 48.3292 24.0827 48.369 23.9776 48.4434L13.6724 55.5151C13.548 55.6008 13.4662 55.7275 13.4451 55.8678C13.424 56.008 13.4652 56.1501 13.5598 56.2629C13.6543 56.3756 13.7944 56.4497 13.9493 56.4689C14.1042 56.488 14.2611 56.4506 14.3855 56.3649L24.6907 49.2937C24.7902 49.2272 24.864 49.1341 24.9018 49.0275C24.9396 48.9209 24.9394 48.8061 24.9012 48.6996C24.863 48.5931 24.7889 48.5002 24.6891 48.434C24.5894 48.3678 24.4693 48.3312 24.3457 48.3303Z" fill="#2266DD"/>
<path fill-rule="evenodd" clip-rule="evenodd" d="M27.4787 50.3097C27.3454 50.3086 27.2156 50.3484 27.1106 50.4227L15.9681 57.8693C15.9044 57.9103 15.8504 57.9625 15.8093 58.0227C15.7681 58.0828 15.7405 58.1496 15.7282 58.2196C15.7159 58.2895 15.7191 58.3609 15.7376 58.4297C15.7561 58.4985 15.7895 58.5634 15.8359 58.6204C15.8824 58.6773 15.9408 58.7252 16.0079 58.7615C16.0751 58.7978 16.1495 58.8219 16.2269 58.8319C16.3043 58.8418 16.3831 58.8375 16.4587 58.8196C16.5343 58.8017 16.6053 58.7704 16.6674 58.7274L27.8099 51.277C27.9104 51.2117 27.9857 51.1193 28.0251 51.0131C28.0645 50.9069 28.066 50.7922 28.0293 50.6852C27.9927 50.5782 27.9197 50.4843 27.8209 50.417C27.7221 50.3496 27.6023 50.3119 27.4787 50.3097Z" fill="#2266DD"/>
<path fill-rule="evenodd" clip-rule="evenodd" d="M30.6116 52.5724C30.4577 52.5665 30.3075 52.6155 30.193 52.7088L21.1391 59.8765C21.078 59.9216 21.0274 59.9773 20.9906 60.0405C20.9537 60.1038 20.9313 60.1732 20.9246 60.2445C20.9179 60.3157 20.927 60.3872 20.9515 60.4552C20.976 60.5231 21.0153 60.5859 21.0671 60.6398C21.1189 60.6937 21.1822 60.7379 21.2531 60.7693C21.3241 60.8006 21.4012 60.8186 21.48 60.8224C21.5588 60.8262 21.6377 60.8157 21.7119 60.7914C21.7861 60.7671 21.8542 60.7293 21.912 60.6807L30.9705 53.5133C31.0618 53.444 31.1277 53.3509 31.1595 53.2469C31.1913 53.1429 31.1875 53.0328 31.1486 52.9307C31.1097 52.8287 31.0376 52.7396 30.9417 52.6755C30.8458 52.6114 30.7307 52.576 30.6116 52.5724Z" fill="#2266DD"/>
<path fill-rule="evenodd" clip-rule="evenodd" d="M34.4071 55.1185C34.2543 55.1261 34.1107 55.1872 34.0068 55.2891L27.3452 61.6066C27.2918 61.6572 27.2498 61.7169 27.2218 61.7822C27.1938 61.8475 27.1803 61.9171 27.182 61.9871C27.1837 62.0572 27.2006 62.1262 27.2318 62.1903C27.263 62.2544 27.3078 62.3124 27.3637 62.3609C27.4195 62.4093 27.4854 62.4472 27.5575 62.4726C27.6296 62.498 27.7065 62.5101 27.7838 62.5085C27.8611 62.507 27.9374 62.4917 28.0082 62.4635C28.0789 62.4352 28.1429 62.3948 28.1964 62.3442L34.8579 56.0267C34.9419 55.9501 34.9982 55.8523 35.0195 55.7462C35.0408 55.64 35.026 55.5305 34.9772 55.4321C34.9284 55.3337 34.8477 55.2511 34.7459 55.1951C34.6442 55.139 34.526 55.1125 34.4071 55.1185Z" fill="#2266DD"/>
</svg>
