<svg width="221" height="67" viewBox="0 0 221 67" fill="none" xmlns="http://www.w3.org/2000/svg">
<path d="M1 11.6669C1 11.6669 40 -12.3336 57 11.6669C74 35.6675 100 -19.3333 115 11.6669C130 42.6671 160 -14.3331 169 11.6669C178 37.6669 220 5.6676 220 5.6676M1 33.6669C1 33.6669 40 9.66636 57 33.6669C74 57.6675 100 2.66669 115 33.6669C130 64.6671 160 7.66692 169 33.6669C178 59.6669 220 27.6676 220 27.6676M1 55.2559C1 55.2559 40 29.9301 57 55.2559C74 80.5817 100 22.5439 115 55.2559C130 87.9679 160 27.8203 169 55.2559C178 82.6916 220 48.9253 220 48.9253" stroke="#2266DD" stroke-width="2"/>
</svg>
