<svg width="64" height="60" viewBox="0 0 64 60" fill="none" xmlns="http://www.w3.org/2000/svg">
<path fill-rule="evenodd" clip-rule="evenodd" d="M32.7906 13.5934C29.8987 13.3876 26.9024 13.9701 24.3327 15.1803C21.2891 16.6138 18.4727 18.8294 16.7369 21.6367C14.995 24.4542 14.1564 27.8787 14.5589 31.1286C15.0402 35.014 16.792 39.0981 20.0039 41.8432C23.4586 44.7958 28.4306 46.7197 33.2172 46.4155C38.0753 46.1068 42.7315 43.5029 45.7861 40.1391C48.3758 37.2873 49.5185 33.4089 49.5431 29.8097C49.5592 25.7381 48.5552 21.0701 45.3006 17.9434C42.0605 14.8309 37.0801 13.9024 32.7906 13.5976V13.5934ZM32.6091 15.733C36.6562 16.0207 41.0696 16.9741 43.6217 19.4259C46.2201 21.9219 47.2346 26.0728 47.2199 29.7972C47.1981 32.977 46.1361 36.4174 44.0074 38.7616C41.3311 41.7088 37.0978 44.0189 33.0538 44.2759C29.0693 44.5291 24.5785 42.8334 21.583 40.2731C18.9172 37.9947 17.2924 34.3452 16.8639 30.8858C16.5249 28.1482 17.2572 25.1131 18.7515 22.696C20.2069 20.3419 22.693 18.3578 25.3854 17.0896C27.5671 16.0623 30.1823 15.5604 32.6091 15.733Z" fill="#2266DD"/>
<path fill-rule="evenodd" clip-rule="evenodd" d="M34.2154 0.0564711C25.5583 -0.493402 16.4134 3.02277 10.1121 8.40552C4.30629 13.3651 1.06225 20.8564 0.179506 27.9798C-0.550376 33.8696 0.979536 40.1472 4.14983 45.2722C7.29424 50.3551 12.4506 54.4176 18.0256 57.042C22.6922 59.2387 28.1686 60.299 33.4077 59.9268C41.3762 59.3609 50.4985 57.6039 56.295 52.0385C62.1332 46.4334 64.0292 37.875 63.9997 30.3665C63.9565 23.7785 61.8427 16.6755 57.1707 11.5332C51.5867 5.3873 43.0021 0.619237 34.2154 0.060789V0.0564711ZM34.0566 2.19198C42.0296 2.69877 50.182 7.17717 55.3875 12.9066C59.5985 17.5414 61.636 24.2068 61.6765 30.3748C61.7046 37.536 59.8023 45.5773 54.6206 50.5521C49.5124 55.4568 40.9524 57.2426 33.2262 57.7914C28.4519 58.1306 23.3614 57.1467 19.0828 55.1327C13.859 52.6738 9.03289 48.8382 6.16902 44.2087C3.24647 39.4841 1.82273 33.5999 2.4891 28.2227C3.31902 21.5254 6.43157 14.4729 11.6912 9.97984C17.5333 4.9894 26.2013 1.69292 34.0566 2.19198Z" fill="#2266DD"/>
<path fill-rule="evenodd" clip-rule="evenodd" d="M18.6018 3.93802L16.5962 5.02246L24.1467 16.9471L26.1522 15.8627L18.6018 3.93802Z" fill="#2266DD"/>
<path fill-rule="evenodd" clip-rule="evenodd" d="M46.8342 4.5577L38.8482 15.6784L40.7812 16.8634L48.7672 5.74263L46.8342 4.5577Z" fill="#2266DD"/>
<path fill-rule="evenodd" clip-rule="evenodd" d="M57.511 14.28L45.895 20.7112L47.0929 22.5493L58.7089 16.1181L57.511 14.28Z" fill="#2266DD"/>
<path fill-rule="evenodd" clip-rule="evenodd" d="M47.5239 35.3114L46.3351 37.1537L59.984 44.6568L61.1728 42.8145L47.5239 35.3114Z" fill="#2266DD"/>
<path fill-rule="evenodd" clip-rule="evenodd" d="M42.2151 42.1697L40.028 42.8941L45.2552 56.2925L47.4423 55.5682L42.2151 42.1697Z" fill="#2266DD"/>
<path fill-rule="evenodd" clip-rule="evenodd" d="M22.8399 42.9318L15.5798 54.4544L17.5854 55.5305L24.8454 44.0078L22.8399 42.9318Z" fill="#2266DD"/>
<path fill-rule="evenodd" clip-rule="evenodd" d="M17.4674 35.9687L4.5446 42.668L5.67897 44.5396L18.6018 37.8403L17.4674 35.9687Z" fill="#2266DD"/>
<path fill-rule="evenodd" clip-rule="evenodd" d="M5.72435 14.8787L4.6172 16.7629L16.6688 22.7922L17.776 20.908L5.72435 14.8787Z" fill="#2266DD"/>
<path fill-rule="evenodd" clip-rule="evenodd" d="M7.53482 18.6764C7.40293 18.6719 7.2733 18.7091 7.16728 18.7816L2.30306 21.9973C2.17789 22.0806 2.0937 22.2063 2.06901 22.3469C2.04432 22.4875 2.08116 22.6313 2.17142 22.7468C2.26167 22.8623 2.39796 22.9399 2.55029 22.9627C2.70262 22.9854 2.85852 22.9515 2.98369 22.8682L7.84791 19.6525C7.94829 19.5883 8.02414 19.4964 8.06467 19.3901C8.1052 19.2837 8.10835 19.1682 8.07367 19.0601C8.03899 18.952 7.96825 18.8568 7.87151 18.7879C7.77476 18.7191 7.65695 18.68 7.53482 18.6764Z" fill="#2266DD"/>
<path fill-rule="evenodd" clip-rule="evenodd" d="M8.31981 20.3511C8.16829 20.3487 8.02174 20.401 7.91143 20.4969L1.45001 25.9903C1.39369 26.0381 1.34813 26.0958 1.31594 26.1599C1.28375 26.2239 1.26555 26.2931 1.26239 26.3637C1.25923 26.4343 1.27116 26.5047 1.29751 26.571C1.32386 26.6373 1.36411 26.6983 1.41595 26.7502C1.4678 26.8022 1.53023 26.8443 1.59968 26.874C1.66913 26.9037 1.74424 26.9203 1.82072 26.9232C1.8972 26.9261 1.97355 26.9151 2.04541 26.8908C2.11727 26.8664 2.18324 26.8292 2.23954 26.7814L8.70096 21.288C8.78922 21.2161 8.85174 21.1215 8.88023 21.0161C8.90873 20.9107 8.90186 20.7996 8.86053 20.6979C8.8192 20.5962 8.74536 20.5085 8.6488 20.4464C8.55224 20.3843 8.43751 20.3517 8.31981 20.3511Z" fill="#2266DD"/>
<path fill-rule="evenodd" clip-rule="evenodd" d="M9.21824 22.696C9.08841 22.7043 8.96537 22.7526 8.86885 22.8331L0.519819 29.5996C0.459123 29.6449 0.408941 29.7009 0.372272 29.7645C0.335603 29.828 0.313198 29.8979 0.306396 29.9696C0.299594 30.0414 0.308534 30.1136 0.332683 30.1821C0.356832 30.2506 0.395695 30.3139 0.446948 30.3682C0.498202 30.4225 0.560796 30.4667 0.630991 30.4982C0.701186 30.5297 0.777542 30.548 0.855497 30.5516C0.933453 30.5553 1.01141 30.5445 1.08471 30.5197C1.15801 30.4949 1.22515 30.4567 1.28212 30.4074L9.63569 23.6415C9.73046 23.5687 9.79766 23.4698 9.82757 23.3594C9.85748 23.249 9.84854 23.1327 9.80204 23.0273C9.75555 22.9219 9.67391 22.8329 9.56896 22.7732C9.464 22.7135 9.34117 22.687 9.21824 22.696Z" fill="#2266DD"/>
<path fill-rule="evenodd" clip-rule="evenodd" d="M9.70375 25.3086C9.55287 25.305 9.40641 25.3556 9.29537 25.4499L1.09155 32.2831C0.977254 32.3786 0.908753 32.5123 0.901109 32.6544C0.893466 32.7966 0.947305 32.9355 1.05079 33.041C1.15427 33.1464 1.29892 33.2097 1.45292 33.2168C1.60692 33.2239 1.75767 33.1741 1.872 33.0786L10.0758 26.2454C10.1636 26.174 10.2259 26.08 10.2547 25.9754C10.2834 25.8708 10.2773 25.7606 10.2371 25.6592C10.1969 25.5579 10.1245 25.4702 10.0293 25.4075C9.93416 25.3448 9.82068 25.3108 9.70375 25.3086Z" fill="#2266DD"/>
<path fill-rule="evenodd" clip-rule="evenodd" d="M10.5296 27.9213C10.4003 27.9284 10.2773 27.9752 10.1802 28.0542L1.32296 35.0884C1.26344 35.1338 1.21434 35.1896 1.17853 35.2527C1.14272 35.3159 1.12091 35.385 1.1144 35.4561C1.10788 35.5271 1.11678 35.5987 1.14057 35.6665C1.16437 35.7343 1.20258 35.7969 1.25297 35.851C1.30336 35.905 1.36492 35.9492 1.43405 35.981C1.50318 36.0128 1.57849 36.0316 1.65557 36.0362C1.73264 36.0409 1.80995 36.0313 1.88295 36.008C1.95595 35.9847 2.02319 35.9482 2.08072 35.9007L10.938 28.8665C11.0319 28.7941 11.0986 28.6962 11.1286 28.5867C11.1586 28.4773 11.1504 28.3619 11.1051 28.257C11.0599 28.1521 10.9798 28.0628 10.8765 28.0024C10.7731 27.9419 10.6517 27.9143 10.5296 27.9213Z" fill="#2266DD"/>
<path fill-rule="evenodd" clip-rule="evenodd" d="M11.546 30.9359C11.4151 30.9421 11.2904 30.989 11.1921 31.0689L2.26223 38.17C2.14552 38.2633 2.07376 38.3956 2.06271 38.5377C2.05166 38.6798 2.10224 38.8199 2.20332 38.9276C2.30439 39.0353 2.44769 39.1016 2.6017 39.1119C2.7557 39.1221 2.90779 39.0756 3.02453 38.9823L11.9544 31.8811C12.0483 31.8087 12.115 31.7106 12.145 31.6011C12.175 31.4917 12.1668 31.3763 12.1215 31.2714C12.0763 31.1665 11.9962 31.0775 11.8929 31.017C11.7895 30.9566 11.6681 30.9289 11.546 30.9359Z" fill="#2266DD"/>
<path fill-rule="evenodd" clip-rule="evenodd" d="M12.2085 34.2856C12.0779 34.2912 11.9532 34.337 11.8545 34.4161L3.3603 40.9814C3.30161 41.0265 3.25311 41.082 3.21758 41.1444C3.18205 41.2068 3.16019 41.275 3.15324 41.3451C3.14629 41.4153 3.15439 41.4859 3.17707 41.5532C3.19976 41.6205 3.23658 41.683 3.28545 41.7371C3.33431 41.7913 3.39426 41.8363 3.46187 41.869C3.52948 41.9018 3.60342 41.9218 3.67947 41.9282C3.75553 41.9346 3.8322 41.9271 3.90512 41.9062C3.97804 41.8853 4.04577 41.8513 4.10446 41.8062L12.5987 35.241C12.6948 35.1703 12.7642 35.0734 12.7968 34.9641C12.8294 34.8548 12.8237 34.7387 12.7803 34.6326C12.7369 34.5265 12.6582 34.4357 12.5554 34.3735C12.4527 34.3113 12.3312 34.28 12.2085 34.2856Z" fill="#2266DD"/>
</svg>
