<svg width="53" height="52" viewBox="0 0 53 52" fill="none" xmlns="http://www.w3.org/2000/svg">
<path fill-rule="evenodd" clip-rule="evenodd" d="M12.2481 9.14706C12.0919 9.14199 11.9363 9.16717 11.7908 9.22075C11.6453 9.27433 11.5129 9.35524 11.4019 9.45867C11.4019 9.45867 7.02763 13.5064 4.94979 15.8216C3.71135 17.201 2.18737 18.6286 1.23793 20.538C0.513237 21.9952 -0.0467539 23.6645 0.0200491 25.4144C0.0833721 27.0612 0.79322 28.5069 1.45285 29.7602C2.46772 31.6886 4.93636 34.4471 4.93636 34.4471C5.03189 34.5566 5.14942 34.6472 5.28225 34.714C5.41507 34.7808 5.56058 34.8225 5.71048 34.8364C5.86037 34.8503 6.0117 34.8361 6.15584 34.795C6.29998 34.7539 6.43409 34.6865 6.55053 34.5966C6.66696 34.5067 6.76343 34.3962 6.83443 34.2713C6.90543 34.1464 6.94957 34.0096 6.96433 33.8686C6.97909 33.7276 6.96418 33.5852 6.92044 33.4496C6.87671 33.314 6.80502 33.188 6.70945 33.0785C6.70945 33.0785 4.2139 30.1453 3.50803 28.8043C2.87883 27.6087 2.34973 26.4224 2.30806 25.3386C2.26024 24.0859 2.68671 22.7163 3.3155 21.4518C4.04278 19.9891 5.38557 18.6761 6.7005 17.2112C8.33675 15.3883 11.2062 12.7248 12.1407 11.8506C12.9844 12.7477 15.2813 15.1543 16.4704 16.828C17.6281 18.4578 18.7628 20.0293 19.2599 21.6707C19.7359 23.2416 19.8758 24.9545 19.5868 26.5261C19.4035 27.5183 18.9018 28.5318 18.248 29.4401C17.9679 29.8293 17.23 30.5503 16.5958 31.1035C15.9616 31.6565 15.4272 32.0721 15.4272 32.0721C15.311 32.1625 15.2149 32.2736 15.1444 32.3989C15.0739 32.5243 15.0303 32.6615 15.0162 32.8027C15.0021 32.9438 15.0176 33.0862 15.062 33.2217C15.1064 33.3572 15.1787 33.483 15.2748 33.5923C15.371 33.7015 15.4891 33.792 15.6223 33.8583C15.7556 33.9246 15.9014 33.9656 16.0516 33.9789C16.2017 33.9922 16.3531 33.9775 16.4972 33.9357C16.6413 33.894 16.7752 33.8259 16.8913 33.7354C16.8913 33.7354 17.4693 33.2797 18.154 32.6827C18.8386 32.0854 19.6233 31.3755 20.1465 30.6487C20.9346 29.5541 21.591 28.2878 21.8479 26.8967C22.2049 24.9562 22.0254 22.9422 21.4629 21.0854C20.8257 18.9817 19.5199 17.2441 18.3778 15.6363C16.7287 13.3151 13.0586 9.50921 13.0586 9.50921C12.9559 9.40146 12.8313 9.31435 12.692 9.25286C12.5528 9.19137 12.4018 9.157 12.2481 9.15153V9.14706Z" fill="#2266DD"/>
<path fill-rule="evenodd" clip-rule="evenodd" d="M15.36 0.114235C12.4109 -0.415509 9.67244 1.00641 7.49749 2.13554C5.46714 3.18964 3.51363 4.65741 2.21851 6.60348C0.768416 8.78239 0.193122 11.3556 0.0200492 13.7749C-0.0819733 15.2096 0.22328 17.0188 0.530486 18.5502C0.83769 20.0817 1.16629 21.3043 1.16629 21.3043L3.38714 20.7779C3.38714 20.7779 3.07576 19.6111 2.78267 18.1502C2.48959 16.689 2.23814 14.9012 2.30806 13.9181C2.4651 11.7228 3.00299 9.49012 4.16175 7.74888C5.17607 6.22498 6.8277 4.9464 8.60792 4.0221C10.7378 2.91625 13.0495 1.89476 14.9302 2.2324C16.626 2.53705 18.3286 4.00391 19.4614 5.58861C20.6411 7.23886 21.1914 9.45644 21.1942 11.5599C21.196 12.9639 20.1971 14.555 19.7032 16.5584C19.4 17.7887 18.9778 20.0957 18.9778 20.0957L21.239 20.4621C21.239 20.4621 21.674 18.1119 21.9375 17.0427H21.9329C22.3087 15.5184 23.4894 13.7772 23.4866 11.5599C23.4834 9.11707 22.8815 6.50668 21.3642 4.38425C20.0248 2.51042 18.0167 0.591372 15.36 0.114235Z" fill="#2266DD"/>
<path fill-rule="evenodd" clip-rule="evenodd" d="M1.85583 29.5748C1.85583 29.5748 0.519084 36.5993 0.624514 40.4604C0.681906 42.5966 0.387048 45.2974 1.91851 47.5813H1.91404C3.36342 49.7434 5.83926 51.4217 8.55867 51.8808C11.1274 52.3141 13.7647 51.4738 15.7854 50.1879C18.0866 48.7237 19.7369 46.4189 20.5897 44.0145C21.4829 41.4962 20.8309 38.9793 20.7465 36.8683C20.6568 34.5905 20.133 30.3078 20.133 30.3078L17.854 30.552C17.854 30.552 18.3779 34.8922 18.4585 36.9486C18.5535 39.3444 19.0376 41.5732 18.4137 43.3323C17.7063 45.3271 16.2878 47.2637 14.5048 48.3985C12.8891 49.4265 10.7188 50.0545 8.96613 49.7587C7.00154 49.4273 4.94615 48.0558 3.85729 46.4317C2.87115 44.961 2.97883 42.7068 2.91701 40.4059C2.82712 37.114 4.11699 29.9456 4.11699 29.9456L1.85583 29.5748Z" fill="#2266DD"/>
<path fill-rule="evenodd" clip-rule="evenodd" d="M12.1093 6.75086C11.8053 6.74977 11.5133 6.86213 11.2975 7.06353C11.0817 7.26493 10.9598 7.53876 10.9586 7.82468L10.9094 10.3008C10.9063 10.4424 10.933 10.5829 10.9878 10.7148C11.0427 10.8467 11.1246 10.9672 11.2289 11.0693C11.3332 11.1714 11.4579 11.2533 11.5958 11.3101C11.7337 11.3669 11.8822 11.3976 12.0327 11.4004C12.1832 11.4032 12.3328 11.378 12.4731 11.3264C12.6133 11.2749 12.7413 11.1979 12.8499 11.0998C12.9585 11.0017 13.0454 10.8845 13.1058 10.7548C13.1662 10.6251 13.1988 10.4855 13.2018 10.3439L13.2511 7.86363C13.2559 7.7196 13.2299 7.57591 13.1748 7.44147C13.1196 7.30703 13.0363 7.18456 12.9299 7.0809C12.8234 6.97725 12.696 6.89451 12.555 6.83798C12.4141 6.78144 12.2626 6.75137 12.1093 6.75086Z" fill="#2266DD"/>
<path fill-rule="evenodd" clip-rule="evenodd" d="M40.7699 9.14688C40.6131 9.15009 40.4587 9.18349 40.3163 9.24505C40.1738 9.30661 40.0462 9.39506 39.9415 9.50482C39.9415 9.50482 36.2714 13.3107 34.6223 15.6319C33.4802 17.2397 32.1744 18.9774 31.5373 21.081C30.9747 22.9378 30.7952 24.9518 31.1522 26.8923C31.4091 28.2834 32.0655 29.5494 32.8536 30.6441C33.3768 31.3709 34.1615 32.081 34.8461 32.6783C35.5308 33.2753 36.1088 33.731 36.1088 33.731C36.2249 33.8215 36.3589 33.8896 36.5029 33.9313C36.647 33.9731 36.7984 33.9875 36.9485 33.9742C37.0987 33.9609 37.2445 33.92 37.3778 33.8537C37.511 33.7874 37.6291 33.6971 37.7253 33.5879C37.8214 33.4786 37.8937 33.3525 37.9381 33.217C37.9825 33.0815 37.998 32.9392 37.9839 32.798C37.9698 32.6569 37.9262 32.5196 37.8557 32.3943C37.7852 32.269 37.6891 32.1581 37.5729 32.0677C37.5729 32.0677 37.0385 31.6522 36.4043 31.0991C35.7701 30.5459 35.0322 29.8249 34.7521 29.4358C34.0983 28.5274 33.5966 27.5137 33.4133 26.5214C33.1243 24.9499 33.2642 23.2373 33.7402 21.6664C34.2373 20.0249 35.372 18.4534 36.5297 16.8236C37.7188 15.1499 40.0157 12.7433 40.8594 11.8462C41.7939 12.7205 44.6634 15.3839 46.2996 17.2068C47.6145 18.6717 48.9573 19.9847 49.6846 21.4474C50.3134 22.7119 50.7399 24.0813 50.692 25.3339C50.6504 26.4178 50.1213 27.6044 49.4921 28.7999C48.7862 30.141 46.2907 33.0741 46.2907 33.0741C46.1951 33.1836 46.1234 33.3097 46.0797 33.4452C46.036 33.5808 46.0211 33.723 46.0358 33.864C46.0506 34.0049 46.0947 34.142 46.1657 34.2669C46.2367 34.3918 46.3332 34.5023 46.4496 34.5922C46.5661 34.6821 46.7002 34.7493 46.8443 34.7904C46.9884 34.8315 47.1398 34.8456 47.2896 34.8317C47.4395 34.8178 47.585 34.7764 47.7179 34.7096C47.8507 34.6428 47.9682 34.552 48.0637 34.4424C48.0637 34.4424 50.5324 31.6839 51.5473 29.7555C52.2069 28.5022 52.9167 27.0568 52.9801 25.41C53.0469 23.6601 52.4869 21.9909 51.7622 20.5336C50.8127 18.6242 49.2888 17.1966 48.0503 15.8172C45.9725 13.502 41.5982 9.45429 41.5982 9.45429C41.4893 9.35293 41.3599 9.27303 41.2176 9.21952C41.0753 9.16601 40.9231 9.1399 40.7699 9.14267V9.14688Z" fill="#2266DD"/>
<path fill-rule="evenodd" clip-rule="evenodd" d="M37.6401 0.114235C34.9834 0.591372 32.9752 2.51042 31.6358 4.38425C30.1185 6.50668 29.5166 9.11707 29.5134 11.5599C29.5107 13.7772 30.6913 15.5184 31.0671 17.0427H31.0625C31.326 18.1119 31.761 20.4621 31.761 20.4621L34.0222 20.0957C34.0222 20.0957 33.6 17.7887 33.2968 16.5584C32.8029 14.555 31.804 12.9639 31.8058 11.5599C31.8085 9.45644 32.3589 7.23886 33.5386 5.58861C34.6714 4.00391 36.374 2.53705 38.0698 2.2324C39.9506 1.89476 42.2622 2.91625 44.3921 4.0221C46.1723 4.9464 47.8239 6.22498 48.8383 7.74888C49.997 9.49012 50.5349 11.7228 50.6919 13.9181C50.7619 14.9012 50.5104 16.689 50.2173 18.1502C49.9242 19.6111 49.6129 20.7779 49.6129 20.7779L51.8337 21.3043C51.8337 21.3043 52.1623 20.0817 52.4695 18.5502C52.7767 17.0188 53.082 15.2096 52.9799 13.7749C52.8069 11.3556 52.2316 8.78239 50.7815 6.60348C49.4864 4.65741 47.5329 3.18964 45.5025 2.13554C43.3276 1.00641 40.5892 -0.415509 37.6401 0.114235Z" fill="#2266DD"/>
<path fill-rule="evenodd" clip-rule="evenodd" d="M51.1443 29.5748L48.8831 29.9454C48.8831 29.9454 50.173 37.1138 50.0831 40.4056C50.0213 42.7066 50.129 44.961 49.1428 46.4317C48.054 48.0558 45.9986 49.427 44.034 49.7584C42.2813 50.0542 40.111 49.4262 38.4953 48.3982C36.7123 47.2635 35.2939 45.3271 34.5864 43.3323C33.9625 41.5732 34.4466 39.3442 34.5417 36.9484C34.6222 34.8919 35.1461 30.5518 35.1461 30.5518L32.8671 30.3075C32.8671 30.3075 32.3428 34.5955 32.2537 36.8726C32.1693 38.9836 31.5173 41.5004 32.4104 44.0187C33.2632 46.4232 34.9135 48.7277 37.2147 50.1919C39.2354 51.4777 41.8728 52.3183 44.4414 51.885C47.1609 51.426 49.6367 49.7473 51.0861 47.5852H51.0815C52.613 45.3013 52.3181 42.6005 52.3755 40.4643C52.4809 36.6032 51.1442 29.579 51.1442 29.579L51.1443 29.5748Z" fill="#2266DD"/>
<path fill-rule="evenodd" clip-rule="evenodd" d="M40.855 6.75072C40.5517 6.76064 40.2649 6.88313 40.0576 7.09155C39.8503 7.29998 39.7393 7.57718 39.749 7.86244L39.7983 10.3428C39.8043 10.6287 39.9309 10.9008 40.1502 11.0989C40.3694 11.297 40.6634 11.4049 40.9674 11.3992C41.2714 11.3935 41.5606 11.2746 41.7712 11.0684C41.9819 10.8622 42.0968 10.5855 42.0907 10.2996L42.0415 7.82375C42.041 7.67929 42.0096 7.53628 41.9492 7.40344C41.8889 7.27059 41.8007 7.15067 41.69 7.0505C41.5794 6.95032 41.4484 6.87211 41.305 6.82047C41.1615 6.76882 41.0085 6.74566 40.855 6.75072Z" fill="#2266DD"/>
<path fill-rule="evenodd" clip-rule="evenodd" d="M5.9035 34.9355C5.77467 34.9411 5.65162 34.9875 5.55425 35.0671L1.50211 38.3051C1.38632 38.3978 1.31443 38.53 1.30225 38.6725C1.29007 38.8151 1.3386 38.9563 1.43716 39.0652C1.53572 39.1741 1.67624 39.2419 1.82781 39.2534C1.97937 39.2648 2.12958 39.2192 2.24537 39.1265L6.29752 35.888C6.38939 35.8155 6.45481 35.7179 6.48458 35.6087C6.51435 35.4995 6.50697 35.3842 6.46348 35.2792C6.41998 35.1741 6.34257 35.0846 6.24212 35.0231C6.14167 34.9616 6.02324 34.9304 5.9035 34.9355Z" fill="#2266DD"/>
<path fill-rule="evenodd" clip-rule="evenodd" d="M6.71841 36.6494C6.56941 36.6537 6.42807 36.7123 6.32439 36.8131L1.26032 41.6726C1.20612 41.7229 1.16312 41.7829 1.13383 41.849C1.10453 41.9151 1.08952 41.9861 1.08969 42.0577C1.08985 42.1293 1.10518 42.2002 1.13478 42.2661C1.16438 42.3321 1.20765 42.3919 1.26208 42.4419C1.3165 42.492 1.38099 42.5314 1.45177 42.5577C1.52255 42.5841 1.5982 42.5968 1.67432 42.5954C1.75043 42.594 1.82548 42.5783 1.89509 42.5493C1.96469 42.5203 2.02745 42.4785 2.0797 42.4264L7.14377 37.5669C7.22443 37.4902 7.2788 37.3926 7.29986 37.2866C7.32091 37.1806 7.30769 37.0712 7.26189 36.9723C7.21608 36.8735 7.13981 36.7899 7.04293 36.7323C6.94605 36.6746 6.833 36.646 6.71841 36.6494Z" fill="#2266DD"/>
<path fill-rule="evenodd" clip-rule="evenodd" d="M7.50197 38.936C7.35506 38.948 7.21875 39.0129 7.12138 39.117L1.85135 44.6462C1.74985 44.7528 1.69755 44.893 1.70595 45.0359C1.71436 45.1789 1.78278 45.3129 1.89618 45.4084C2.00957 45.5038 2.15865 45.5528 2.31062 45.5449C2.46259 45.5371 2.60501 45.4729 2.70656 45.3662L7.97211 39.8371C8.04985 39.7572 8.10017 39.657 8.1165 39.5497C8.13284 39.4425 8.11443 39.333 8.06367 39.2357C8.01292 39.1385 7.93218 39.0579 7.83199 39.0044C7.73179 38.9509 7.61678 38.927 7.50197 38.936Z" fill="#2266DD"/>
<path fill-rule="evenodd" clip-rule="evenodd" d="M8.30792 41.2225C8.15966 41.2368 8.02314 41.3049 7.92733 41.4123L2.96177 46.7477C2.90959 46.8006 2.86925 46.8627 2.84314 46.9306C2.81704 46.9985 2.8057 47.0706 2.80981 47.1427C2.81391 47.2148 2.83338 47.2855 2.86704 47.3504C2.90071 47.4153 2.94789 47.4732 3.00579 47.5207C3.06369 47.5681 3.13112 47.604 3.20409 47.6265C3.27706 47.6489 3.35408 47.6573 3.43058 47.6512C3.50707 47.6451 3.58148 47.6246 3.6494 47.5909C3.71731 47.5573 3.77735 47.511 3.82593 47.4551L8.78702 42.1194C8.86399 42.0388 8.91334 41.9384 8.92862 41.831C8.9439 41.7236 8.92441 41.6144 8.87269 41.5175C8.82096 41.4207 8.73941 41.3406 8.63866 41.288C8.53792 41.2354 8.42266 41.2126 8.30792 41.2225Z" fill="#2266DD"/>
<path fill-rule="evenodd" clip-rule="evenodd" d="M9.23477 42.7469C9.15117 42.7519 9.06976 42.7741 8.99627 42.8119C8.92278 42.8497 8.859 42.9024 8.80941 42.9659L4.55577 48.3013C4.51049 48.358 4.47753 48.4224 4.45876 48.4911C4.43999 48.5597 4.43579 48.6312 4.44639 48.7013C4.45699 48.7715 4.48218 48.839 4.52054 48.9001C4.55889 48.9611 4.60965 49.0146 4.66992 49.0572C4.73019 49.0998 4.79879 49.1306 4.8718 49.1482C4.94481 49.1659 5.0208 49.1701 5.09543 49.1601C5.17007 49.1501 5.24188 49.1264 5.30678 49.0903C5.37168 49.0543 5.42838 49.0065 5.47366 48.9498L9.72729 43.6144C9.79482 43.5322 9.83565 43.4334 9.84488 43.3299C9.85411 43.2264 9.83133 43.1225 9.7793 43.0309C9.72727 42.9393 9.64819 42.8636 9.55159 42.8132C9.45498 42.7629 9.34497 42.7399 9.23477 42.7469Z" fill="#2266DD"/>
<path fill-rule="evenodd" clip-rule="evenodd" d="M10.3452 44.9367C10.262 44.9429 10.1812 44.9661 10.1085 45.0046C10.0358 45.0432 9.97296 45.0962 9.9243 45.1599L6.47662 49.5436C6.43113 49.6005 6.39808 49.6655 6.37937 49.7345C6.36066 49.8034 6.35667 49.8751 6.36763 49.9455C6.37858 50.016 6.40426 50.0837 6.44319 50.1448C6.48212 50.2058 6.53353 50.2591 6.59444 50.3014C6.65535 50.3436 6.72456 50.3741 6.79808 50.3911C6.8716 50.4081 6.94796 50.4113 7.02276 50.4003C7.09757 50.3894 7.16933 50.3646 7.2339 50.3274C7.29848 50.2903 7.35458 50.2414 7.39899 50.1837L10.8422 45.8C10.9087 45.7175 10.9485 45.6187 10.9569 45.5155C10.9652 45.4122 10.9418 45.3089 10.8894 45.2178C10.837 45.1268 10.7578 45.0519 10.6612 45.002C10.5647 44.9522 10.455 44.9295 10.3452 44.9367Z" fill="#2266DD"/>
<path fill-rule="evenodd" clip-rule="evenodd" d="M11.3616 47.0337C11.2586 47.0399 11.1593 47.072 11.0742 47.1269C10.9891 47.1818 10.9213 47.2572 10.878 47.3453L9.56163 49.9183C9.49575 50.0473 9.48705 50.1954 9.53744 50.3305C9.58783 50.4655 9.69318 50.5761 9.83032 50.6381C9.96746 50.7001 10.1252 50.7084 10.2687 50.661C10.4123 50.6137 10.53 50.5147 10.5959 50.3857L11.9123 47.8128C11.9575 47.7279 11.9781 47.6333 11.9719 47.5385C11.9657 47.4437 11.933 47.352 11.8771 47.273C11.8212 47.1939 11.7441 47.1302 11.6536 47.0882C11.5631 47.0462 11.4623 47.0274 11.3616 47.0337Z" fill="#2266DD"/>
<path fill-rule="evenodd" clip-rule="evenodd" d="M7.48406 5.53796C7.33506 5.54232 7.19373 5.60094 7.09004 5.70167L1.28719 11.0918C1.23217 11.1413 1.18817 11.2004 1.15776 11.2661C1.12734 11.3317 1.11113 11.4024 1.11005 11.474C1.10897 11.5455 1.12306 11.6166 1.15149 11.6829C1.17991 11.7493 1.22211 11.8097 1.27562 11.8606C1.32913 11.9115 1.39288 11.9518 1.46315 11.9793C1.53342 12.0068 1.6088 12.0208 1.68489 12.0206C1.76099 12.0204 1.83628 12.0061 1.90638 11.9782C1.97647 11.9504 2.03995 11.9094 2.09314 11.8582L7.89152 6.46808C7.97579 6.3932 8.03394 6.29622 8.05829 6.18962C8.08264 6.08302 8.07205 5.97198 8.02792 5.87116C7.98378 5.77034 7.90817 5.68439 7.81108 5.62482C7.71398 5.56524 7.59996 5.53533 7.48406 5.53796Z" fill="#2266DD"/>
<path fill-rule="evenodd" clip-rule="evenodd" d="M7.44376 8.23317C7.36066 8.23064 7.27797 8.24501 7.20143 8.27554C7.12489 8.30607 7.05632 8.35183 7.00049 8.40977L0.982714 14.4737C0.931255 14.5254 0.891128 14.5861 0.864625 14.6524C0.838123 14.7187 0.825765 14.7893 0.828255 14.8601C0.830746 14.9308 0.848036 15.0006 0.87914 15.0651C0.910244 15.1296 0.954552 15.1878 1.00953 15.2362C1.06451 15.2845 1.12909 15.322 1.19958 15.347C1.27007 15.3719 1.34508 15.3835 1.42034 15.3812C1.4956 15.3788 1.56964 15.3625 1.63821 15.3333C1.70679 15.304 1.76856 15.2623 1.82001 15.2106L7.83778 9.1467C7.91502 9.07166 7.96742 8.97735 7.9886 8.87483C8.00979 8.7723 7.99884 8.66605 7.95711 8.56926C7.91537 8.47247 7.84464 8.38918 7.7535 8.32949C7.66237 8.26981 7.55476 8.23641 7.44376 8.23317Z" fill="#2266DD"/>
<path fill-rule="evenodd" clip-rule="evenodd" d="M7.42585 11.2651C7.2766 11.2661 7.13363 11.3218 7.02736 11.4204L1.79762 16.0691C1.73667 16.1159 1.68662 16.1742 1.65057 16.2399C1.61452 16.3057 1.59325 16.3777 1.58809 16.4516C1.58292 16.5254 1.59397 16.5993 1.62055 16.6689C1.64712 16.7386 1.68866 16.8025 1.74256 16.8563C1.79647 16.9102 1.86159 16.953 1.93388 16.9821C2.00617 17.0113 2.08407 17.0262 2.16274 17.0258C2.2414 17.0255 2.31915 17.0101 2.39114 16.9803C2.46313 16.9505 2.52782 16.907 2.58119 16.8527L7.81092 12.2034C7.89689 12.1303 7.95728 12.0344 7.98413 11.9283C8.01098 11.8223 8.00303 11.7113 7.96133 11.6096C7.91963 11.5079 7.84613 11.4204 7.75054 11.3588C7.65494 11.2972 7.54174 11.265 7.42585 11.2651Z" fill="#2266DD"/>
<path fill-rule="evenodd" clip-rule="evenodd" d="M37.2819 34.9355C37.1531 34.9411 37.03 34.9875 36.9327 35.0671L32.8805 38.3051C32.7647 38.3978 32.6928 38.53 32.6806 38.6725C32.6684 38.8151 32.717 38.9563 32.8155 39.0652C32.9141 39.1741 33.0546 39.2419 33.2062 39.2534C33.3578 39.2648 33.508 39.2192 33.6238 39.1265L37.6759 35.888C37.7678 35.8155 37.8332 35.7179 37.863 35.6087C37.8927 35.4995 37.8854 35.3842 37.8419 35.2792C37.7984 35.1741 37.721 35.0846 37.6205 35.0231C37.5201 34.9616 37.4016 34.9304 37.2819 34.9355Z" fill="#2266DD"/>
<path fill-rule="evenodd" clip-rule="evenodd" d="M38.0968 36.6494C37.9478 36.6537 37.8065 36.7123 37.7028 36.8131L32.6387 41.6726C32.5845 41.7229 32.5415 41.7829 32.5122 41.849C32.4829 41.9151 32.4679 41.9861 32.4681 42.0577C32.4683 42.1293 32.4836 42.2002 32.5132 42.2661C32.5428 42.3321 32.5861 42.3919 32.6405 42.4419C32.6949 42.492 32.7594 42.5314 32.8302 42.5577C32.901 42.5841 32.9766 42.5968 33.0527 42.5954C33.1288 42.594 33.2039 42.5783 33.2735 42.5493C33.3431 42.5203 33.4059 42.4785 33.4581 42.4264L38.5222 37.5669C38.6028 37.4902 38.6572 37.3926 38.6783 37.2866C38.6993 37.1806 38.6861 37.0712 38.6403 36.9723C38.5945 36.8735 38.5182 36.7899 38.4213 36.7323C38.3244 36.6746 38.2114 36.646 38.0968 36.6494Z" fill="#2266DD"/>
<path fill-rule="evenodd" clip-rule="evenodd" d="M38.8804 38.936C38.7335 38.948 38.5971 39.0129 38.4998 39.117L33.2298 44.6462C33.1795 44.699 33.1408 44.7606 33.1158 44.8275C33.0908 44.8944 33.0801 44.9652 33.0843 45.0359C33.0927 45.1789 33.1611 45.3129 33.2745 45.4084C33.3879 45.5038 33.537 45.5531 33.689 45.5452C33.841 45.5373 33.9834 45.4729 34.085 45.3662L39.3505 39.8371C39.4283 39.7572 39.4786 39.657 39.4949 39.5497C39.5112 39.4425 39.4928 39.333 39.4421 39.2357C39.3913 39.1385 39.3106 39.0579 39.2104 39.0044C39.1102 38.9509 38.9952 38.927 38.8804 38.936Z" fill="#2266DD"/>
<path fill-rule="evenodd" clip-rule="evenodd" d="M39.6863 41.2225C39.5381 41.2368 39.4015 41.3049 39.3057 41.4123L34.3402 46.7477C34.288 46.8006 34.2476 46.8627 34.2215 46.9306C34.1954 46.9985 34.1841 47.0706 34.1882 47.1427C34.1923 47.2148 34.2118 47.2855 34.2454 47.3504C34.2791 47.4153 34.3263 47.4732 34.3842 47.5207C34.4421 47.5681 34.5095 47.604 34.5825 47.6265C34.6555 47.6489 34.7325 47.6573 34.809 47.6512C34.8855 47.6451 34.9599 47.6246 35.0278 47.5909C35.0957 47.5573 35.1557 47.511 35.2043 47.4551L40.1654 42.1194C40.2424 42.0388 40.2917 41.9384 40.307 41.831C40.3223 41.7236 40.3028 41.6144 40.2511 41.5175C40.1994 41.4207 40.1178 41.3406 40.0171 41.288C39.9163 41.2354 39.8011 41.2126 39.6863 41.2225Z" fill="#2266DD"/>
<path fill-rule="evenodd" clip-rule="evenodd" d="M40.6132 42.7469C40.5296 42.7519 40.4482 42.7741 40.3747 42.8119C40.3012 42.8497 40.2374 42.9024 40.1878 42.9659L35.9342 48.3013C35.8889 48.358 35.8559 48.4224 35.8372 48.4911C35.8184 48.5597 35.8142 48.6312 35.8248 48.7013C35.8354 48.7715 35.8606 48.839 35.8989 48.9001C35.9373 48.9611 35.9881 49.0146 36.0483 49.0572C36.1086 49.0998 36.1772 49.1306 36.2502 49.1482C36.3232 49.1659 36.3992 49.1701 36.4738 49.1601C36.5485 49.1501 36.6203 49.1264 36.6852 49.0903C36.7501 49.0543 36.8068 49.0065 36.8521 48.9498L41.1057 43.6144C41.1732 43.5322 41.2141 43.4334 41.2233 43.3299C41.2325 43.2264 41.2097 43.1225 41.1577 43.0309C41.1057 42.9393 41.0266 42.8636 40.93 42.8132C40.8334 42.7629 40.7234 42.7399 40.6132 42.7469Z" fill="#2266DD"/>
<path fill-rule="evenodd" clip-rule="evenodd" d="M41.7236 44.9367C41.6404 44.9429 41.5596 44.9661 41.4869 45.0046C41.4142 45.0432 41.3514 45.0962 41.3027 45.1599L37.855 49.5436C37.8095 49.6005 37.7765 49.6655 37.7578 49.7345C37.7391 49.8034 37.7351 49.8751 37.746 49.9455C37.757 50.016 37.7827 50.0837 37.8216 50.1448C37.8605 50.2058 37.9119 50.2591 37.9729 50.3014C38.0338 50.3436 38.103 50.3741 38.1765 50.3911C38.25 50.4081 38.3264 50.4113 38.4012 50.4003C38.476 50.3894 38.5477 50.3646 38.6123 50.3274C38.6769 50.2903 38.733 50.2414 38.7774 50.1837L42.2206 45.8C42.2871 45.7175 42.3269 45.6187 42.3353 45.5155C42.3436 45.4122 42.3202 45.3089 42.2678 45.2178C42.2153 45.1268 42.1362 45.0519 42.0396 45.002C41.9431 44.9522 41.8334 44.9295 41.7236 44.9367Z" fill="#2266DD"/>
<path fill-rule="evenodd" clip-rule="evenodd" d="M42.74 47.0337C42.637 47.0399 42.5377 47.072 42.4526 47.1269C42.3675 47.1818 42.2997 47.2572 42.2564 47.3453L40.94 49.9183C40.9074 49.9822 40.8885 50.0515 40.8843 50.1223C40.8801 50.193 40.8908 50.2639 40.9158 50.3307C40.9662 50.4658 41.0715 50.5764 41.2087 50.6384C41.3458 50.7004 41.5036 50.7084 41.6471 50.661C41.7907 50.6136 41.9084 50.5147 41.9743 50.3857L43.2907 47.8128C43.3359 47.7279 43.3565 47.6333 43.3503 47.5385C43.3441 47.4437 43.3114 47.352 43.2555 47.273C43.1996 47.1939 43.1225 47.1302 43.032 47.0882C42.9415 47.0462 42.8407 47.0274 42.74 47.0337Z" fill="#2266DD"/>
</svg>
