<svg width="22" height="38" viewBox="0 0 22 38" fill="none" xmlns="http://www.w3.org/2000/svg">
<path fill-rule="evenodd" clip-rule="evenodd" d="M9.63967 0.2794C10.1612 -0.0931334 10.8618 -0.0931333 11.3834 0.2794C17.8802 4.92002 20.8255 10.4833 21.0111 18.4651C21.0968 22.2765 20.7299 25.7663 19.6133 28.781C18.4681 31.7975 16.4315 34.5845 13.4332 36.938C13.0549 37.2326 12.5585 37.3286 12.0976 37.1963C11.1793 36.9327 11.023 35.8442 10.5115 35.1657C9.99974 35.8446 9.84439 36.9325 8.9254 37.1963C8.46452 37.3286 7.96817 37.2326 7.58987 36.938C4.5915 34.5845 2.55499 31.7975 1.40971 28.781C0.293102 25.7663 -0.0737632 22.2765 0.0119281 18.4651C0.197553 10.4833 3.1428 4.92002 9.63967 0.2794ZM12.9984 33.5C14.8746 31.775 16.0052 29.8926 16.8041 27.7283C17.8092 25.0815 18.0991 22.1583 18.0119 18.5349C17.8672 12.311 16.4108 8.26064 11.9984 4.5V15.5C13.7236 15.944 14.4984 17.6362 14.4984 19.5C14.4984 21.3638 13.7236 23.056 11.9984 23.5V32.5C11.9984 32.5 12.8001 33.2391 12.9984 33.5ZM7.99835 33.5C6.12206 31.775 5.01787 29.8926 4.21893 27.7283C3.21389 25.0815 2.92391 22.1583 3.01112 18.5349C3.15557 12.3234 4.60442 8.25563 8.99835 4.5V15.5C7.27312 15.944 6.49835 17.6362 6.49835 19.5C6.49835 21.3638 7.27312 23.056 8.99835 23.5V32.5C8.99835 32.5 8.18923 33.2487 7.99835 33.5ZM10.4984 17.5C9.39378 17.5 8.49835 18.3954 8.49835 19.5C8.49835 20.6046 9.39378 21.5 10.4984 21.5C11.6029 21.5 12.4984 20.6046 12.4984 19.5C12.4984 18.3954 11.6029 17.5 10.4984 17.5Z" fill="white"/>
</svg>
