<svg width="54" height="38" viewBox="0 0 54 38" fill="none" xmlns="http://www.w3.org/2000/svg">
<path fill-rule="evenodd" clip-rule="evenodd" d="M9.63967 0.2794C10.1612 -0.0931334 10.8618 -0.0931333 11.3834 0.2794C17.8802 4.92002 20.8255 10.4833 21.0111 18.4651C21.0968 22.2765 20.7299 25.7663 19.6133 28.781C18.4681 31.7975 16.4315 34.5845 13.4332 36.938C13.0549 37.2326 12.5585 37.3286 12.0976 37.1963C11.1793 36.9327 11.023 35.8442 10.5115 35.1657C9.99974 35.8446 9.84439 36.9325 8.9254 37.1963C8.46452 37.3286 7.96817 37.2326 7.58987 36.938C4.5915 34.5845 2.55499 31.7975 1.40971 28.781C0.293102 25.7663 -0.0737632 22.2765 0.0119281 18.4651C0.197553 10.4833 3.1428 4.92002 9.63967 0.2794ZM12.9984 33.5C14.8746 31.775 16.0052 29.8926 16.8041 27.7283C17.8092 25.0815 18.0991 22.1583 18.0119 18.5349C17.8672 12.311 16.4108 8.26064 11.9984 4.5V15.5C13.7236 15.944 14.4984 17.6362 14.4984 19.5C14.4984 21.3638 13.7236 23.056 11.9984 23.5V32.5C11.9984 32.5 12.8001 33.2391 12.9984 33.5ZM7.99835 33.5C6.12206 31.775 5.01787 29.8926 4.21893 27.7283C3.21389 25.0815 2.92391 22.1583 3.01112 18.5349C3.15557 12.3234 4.60442 8.25563 8.99835 4.5V15.5C7.27312 15.944 6.49835 17.6362 6.49835 19.5C6.49835 21.3638 7.27312 23.056 8.99835 23.5V32.5C8.99835 32.5 8.18923 33.2487 7.99835 33.5ZM10.4984 17.5C9.39378 17.5 8.49835 18.3954 8.49835 19.5C8.49835 20.6046 9.39378 21.5 10.4984 21.5C11.6029 21.5 12.4984 20.6046 12.4984 19.5C12.4984 18.3954 11.6029 17.5 10.4984 17.5Z" fill="#337DFF"/>
<path fill-rule="evenodd" clip-rule="evenodd" d="M41.6397 0.2794C42.1612 -0.0931334 42.8618 -0.0931333 43.3834 0.2794C49.8802 4.92002 52.8255 10.4833 53.0111 18.4651C53.0968 22.2765 52.7299 25.7663 51.6133 28.781C50.4681 31.7975 48.4315 34.5845 45.4332 36.938C45.0549 37.2326 44.5585 37.3286 44.0976 37.1963C43.1793 36.9327 43.023 35.8442 42.5115 35.1657C41.9997 35.8446 41.8444 36.9325 40.9254 37.1963C40.4645 37.3286 39.9682 37.2326 39.5899 36.938C36.5915 34.5845 34.555 31.7975 33.4097 28.781C32.2931 25.7663 31.9262 22.2765 32.0119 18.4651C32.1976 10.4833 35.1428 4.92002 41.6397 0.2794ZM44.9984 33.5C46.8746 31.775 48.0052 29.8926 48.8041 27.7283C49.8092 25.0815 50.0991 22.1583 50.0119 18.5349C49.8672 12.311 48.4108 8.26064 43.9984 4.5V15.5C45.7236 15.944 46.4984 17.6362 46.4984 19.5C46.4984 21.3638 45.7236 23.056 43.9984 23.5V32.5C43.9984 32.5 44.8001 33.2391 44.9984 33.5ZM39.9984 33.5C38.1221 31.775 37.0179 29.8926 36.2189 27.7283C35.2139 25.0815 34.9239 22.1583 35.0111 18.5349C35.1556 12.3234 36.6044 8.25563 40.9984 4.5V15.5C39.2731 15.944 38.4984 17.6362 38.4984 19.5C38.4984 21.3638 39.2731 23.056 40.9984 23.5V32.5C40.9984 32.5 40.1892 33.2487 39.9984 33.5ZM42.4984 17.5C41.3938 17.5 40.4984 18.3954 40.4984 19.5C40.4984 20.6046 41.3938 21.5 42.4984 21.5C43.6029 21.5 44.4984 20.6046 44.4984 19.5C44.4984 18.3954 43.6029 17.5 42.4984 17.5Z" fill="#337DFF"/>
</svg>
